# Made in Blockbench 5.1.4
mtllib solar_heat_generator.mtl

o screen1
v 1.749783183523212 0.125 -2.8763824465520305
v 1.056873534139747 0.125 -2.5893698722782132
v 1.056873534139747 0.625 -2.5893698722782132
v 1.749783183523212 0.625 -2.8763824465520305
vt 0 0.5
vt 0.75 0.5
vt 0.75 1
vt 0 1
vn -0.38268343236508967 0 -0.9238795325112868
usemtl Screen_cmd
f 1/1/1 2/2/1 3/3/1 4/4/1
o screen2
v 0.875 0.125 -2.55
v 0.125 0.125 -2.55
v 0.125 0.625 -2.55
v 0.875 0.625 -2.55
vt 0 0.5
vt 0.75 0.5
vt 0.75 1
vt 0 1
vn 0 0 -1
usemtl Screen_logo
f 5/5/2 6/6/2 7/7/2 8/8/2
o screen3
v -0.056873534139747016 0.125 -2.5893698722782132
v -0.749783183523212 0.125 -2.8763824465520305
v -0.749783183523212 0.625 -2.8763824465520305
v -0.056873534139747016 0.625 -2.5893698722782132
vt 0 0.5
vt 0.75 0.5
vt 0.75 1
vt 0 1
vn 0.38268343236508967 0 -0.9238795325112868
usemtl Screen_hello
f 9/9/3 10/10/3 11/11/3 12/12/3