# Blender 5.0.1
# www.blender.org
mtllib large_wind_generator.mtl
o back
v 1.000000 0.812500 3.875000
v 1.000000 0.812500 3.500000
v 1.000000 0.000000 3.875000
v 1.000000 0.000000 3.500000
v 0.000000 0.812500 3.500000
v 0.000000 0.812500 3.875000
v 0.000000 0.000000 3.500000
v 0.000000 0.000000 3.875000
vn -0.0000 -0.0000 -1.0000
vn 1.0000 -0.0000 -0.0000
vn -0.0000 -0.0000 1.0000
vn -1.0000 -0.0000 -0.0000
vn -0.0000 1.0000 -0.0000
vn -0.0000 -1.0000 -0.0000
vt 0.451172 0.527344
vt 0.466797 0.527344
vt 0.466797 0.540039
vt 0.451172 0.540039
vt 0.445312 0.527344
vt 0.445312 0.540039
vt 0.472656 0.527344
vt 0.488281 0.527344
vt 0.488281 0.540039
vt 0.472656 0.540039
vt 0.466797 0.545898
vt 0.451172 0.545898
vt 0.482422 0.540039
vt 0.482422 0.545898
s 1
usemtl Base
f 4/1/1 7/2/1 5/3/1 2/4/1
f 3/5/2 4/1/2 2/4/2 1/6/2
f 8/7/3 3/8/3 1/9/3 6/10/3
f 7/2/4 8/7/4 6/10/4 5/3/4
f 6/11/5 1/12/5 2/4/5 5/3/5
f 7/13/6 4/3/6 3/11/6 8/14/6
o back.001
v 2.000000 2.000000 3.250000
v 2.000000 2.000000 2.812500
v 2.000000 0.500000 3.250000
v 2.000000 0.500000 2.812500
v -1.000000 2.000000 2.812500
v -1.000000 2.000000 3.250000
v -1.000000 0.500000 2.812500
v -1.000000 0.500000 3.250000
vn -0.0000 -0.0000 -1.0000
vn 1.0000 -0.0000 -0.0000
vn -0.0000 -0.0000 1.0000
vn -1.0000 -0.0000 -0.0000
vn -0.0000 1.0000 -0.0000
vn -0.0000 -1.0000 -0.0000
vt 0.420898 0.635742
vt 0.467773 0.635742
vt 0.467773 0.659180
vt 0.420898 0.659180
vt 0.414062 0.635742
vt 0.414062 0.659180
vt 0.474609 0.635742
vt 0.521484 0.635742
vt 0.521484 0.659180
vt 0.474609 0.659180
vt 0.467773 0.666016
vt 0.420898 0.666016
vt 0.514648 0.659180
vt 0.514648 0.666016
s 1
usemtl Base
f 12/15/7 15/16/7 13/17/7 10/18/7
f 11/19/8 12/15/8 10/18/8 9/20/8
f 16/21/9 11/22/9 9/23/9 14/24/9
f 15/16/10 16/21/10 14/24/10 13/17/10
f 14/25/11 9/26/11 10/18/11 13/17/11
f 15/27/12 12/17/12 11/25/12 16/28/12
o back_connector_side
v 2.000000 1.000000 3.937500
v 2.000000 1.000000 3.500000
v 2.000000 0.000000 3.937500
v 2.000000 0.000000 3.500000
v 1.000000 1.000000 3.500000
v 1.000000 1.000000 3.937500
v 1.000000 0.000000 3.500000
v 1.000000 0.000000 3.937500
vn -0.0000 -0.0000 -1.0000
vn 1.0000 -0.0000 -0.0000
vn -0.0000 -0.0000 1.0000
vn -1.0000 -0.0000 -0.0000
vn -0.0000 1.0000 -0.0000
vn -0.0000 -1.0000 -0.0000
vt 0.444336 0.568359
vt 0.459961 0.568359
vt 0.459961 0.583984
vt 0.444336 0.583984
vt 0.437500 0.568359
vt 0.437500 0.583984
vt 0.466797 0.568359
vt 0.482422 0.568359
vt 0.482422 0.583984
vt 0.466797 0.583984
vt 0.459961 0.590820
vt 0.444336 0.590820
vt 0.475586 0.583984
vt 0.475586 0.590820
s 1
usemtl Base
f 20/29/13 23/30/13 21/31/13 18/32/13
f 19/33/14 20/29/14 18/32/14 17/34/14
f 24/35/15 19/36/15 17/37/15 22/38/15
f 23/30/16 24/35/16 22/38/16 21/31/16
f 22/39/17 17/40/17 18/32/17 21/31/17
f 23/41/18 20/31/18 19/39/18 24/42/18
o back_connector_side.001
v 0.000000 1.000000 3.937500
v 0.000000 1.000000 3.500000
v 0.000000 0.000000 3.937500
v 0.000000 0.000000 3.500000
v -1.000000 1.000000 3.500000
v -1.000000 1.000000 3.937500
v -1.000000 0.000000 3.500000
v -1.000000 0.000000 3.937500
vn -0.0000 -0.0000 -1.0000
vn 1.0000 -0.0000 -0.0000
vn -0.0000 -0.0000 1.0000
vn -1.0000 -0.0000 -0.0000
vn -0.0000 1.0000 -0.0000
vn -0.0000 -1.0000 -0.0000
vt 0.459961 0.568359
vt 0.444336 0.568359
vt 0.444336 0.583984
vt 0.459961 0.583984
vt 0.466797 0.568359
vt 0.466797 0.583984
vt 0.482422 0.568359
vt 0.482422 0.583984
vt 0.437500 0.568359
vt 0.437500 0.583984
vt 0.444336 0.590820
vt 0.459961 0.590820
vt 0.475586 0.583984
vt 0.475586 0.590820
s 1
usemtl Base
f 28/43/19 31/44/19 29/45/19 26/46/19
f 27/47/20 28/43/20 26/46/20 25/48/20
f 32/49/21 27/47/21 25/48/21 30/50/21
f 31/44/22 32/51/22 30/52/22 29/45/22
f 30/53/23 25/54/23 26/46/23 29/45/23
f 31/46/24 28/55/24 27/56/24 32/54/24
o back_fin
v 0.623750 36.231495 4.408952
v 0.623750 36.375000 4.062497
v 0.623750 35.249870 4.002351
v 0.623750 35.393379 3.655896
v 0.373750 36.375000 4.062497
v 0.373750 36.231495 4.408952
v 0.373750 35.393379 3.655896
v 0.373750 35.249870 4.002351
vn -0.0000 0.3827 -0.9239
vn 1.0000 -0.0000 -0.0000
vn -1.0000 -0.0000 -0.0000
vn -0.0000 0.9239 0.3827
vt 0.294922 0.508789
vt 0.298828 0.508789
vt 0.298828 0.525391
vt 0.294922 0.525391
vt 0.289062 0.508789
vt 0.289062 0.525391
vt 0.304688 0.508789
vt 0.304688 0.525391
vt 0.298828 0.531250
vt 0.294922 0.531250
s 1
usemtl Base
f 36/57/25 39/58/25 37/59/25 34/60/25
f 35/61/26 36/57/26 34/60/26 33/62/26
f 39/58/27 40/63/27 38/64/27 37/59/27
f 38/65/28 33/66/28 34/60/28 37/59/28
o back_fin.001
v 0.625000 36.375000 4.937497
v 0.625000 36.375000 4.062497
v 0.625000 34.625000 4.937498
v 0.625000 34.625000 4.062498
v 0.375000 36.375000 4.062497
v 0.375000 36.375000 4.937497
v 0.375000 34.625000 4.062498
v 0.375000 34.625000 4.937498
vn -0.0000 -0.0000 -1.0000
vn 1.0000 -0.0000 -0.0000
vn -0.0000 -0.0000 1.0000
vn -1.0000 -0.0000 -0.0000
vn -0.0000 1.0000 -0.0000
vt 0.388672 0.504883
vt 0.392578 0.504883
vt 0.392578 0.532227
vt 0.388672 0.532227
vt 0.375000 0.504883
vt 0.375000 0.532227
vt 0.406250 0.504883
vt 0.410156 0.504883
vt 0.410156 0.532227
vt 0.406250 0.532227
vt 0.392578 0.545898
vt 0.388672 0.545898
s 1
usemtl Base
f 44/67/29 47/68/29 45/69/29 42/70/29
f 43/71/30 44/67/30 42/70/30 41/72/30
f 48/73/31 43/74/31 41/75/31 46/76/31
f 47/68/32 48/73/32 46/76/32 45/69/32
f 46/77/33 41/78/33 42/70/33 45/69/33
o base
v 0.066386 35.438541 -1.375003
v 0.066386 35.438541 -1.562503
v 0.878886 34.031250 -1.375003
v 0.878886 34.031250 -1.562503
v -0.691386 35.001041 -1.562503
v -0.691386 35.001041 -1.375003
v 0.121114 33.593750 -1.562503
v 0.121114 33.593750 -1.375003
vn -0.0000 -0.0000 -1.0000
vn 0.8660 0.5000 -0.0000
vn -0.8660 -0.5000 -0.0000
vn -0.5000 0.8660 -0.0000
vt 0.219727 0.502930
vt 0.233398 0.502930
vt 0.233398 0.528320
vt 0.219727 0.528320
vt 0.216797 0.502930
vt 0.216797 0.528320
vt 0.236328 0.502930
vt 0.236328 0.528320
vt 0.233398 0.531250
vt 0.219727 0.531250
s 1
usemtl Base
f 52/79/34 55/80/34 53/81/34 50/82/34
f 51/83/35 52/79/35 50/82/35 49/84/35
f 55/80/36 56/85/36 54/86/36 53/81/36
f 54/87/37 49/88/37 50/82/37 53/81/37
o base.001
v 0.260823 31.875000 1.077422
v 0.739177 31.875000 -0.077427
v 0.260823 31.562500 1.077422
v 0.739177 31.562500 -0.077427
v -0.646642 31.875000 -0.651452
v -1.124996 31.875000 0.503397
v -0.646642 31.562500 -0.651452
v -1.124996 31.562500 0.503397
vn 0.3827 -0.0000 -0.9239
vn -0.3827 -0.0000 0.9239
vn -0.9239 -0.0000 -0.3827
vn -0.0000 -1.0000 -0.0000
vt 0.457031 0.741211
vt 0.480469 0.741211
vt 0.480469 0.746094
vt 0.457031 0.746094
vt 0.500000 0.741211
vt 0.523438 0.741211
vt 0.523438 0.746094
vt 0.500000 0.746094
vt 0.503906 0.746094
vt 0.480469 0.765625
vt 0.503906 0.765625
s 1
usemtl Base
f 60/89/38 63/90/38 61/91/38 58/92/38
f 64/93/39 59/94/39 57/95/39 62/96/39
f 63/90/40 64/93/40 62/96/40 61/91/40
f 63/97/41 60/91/41 59/98/41 64/99/41
o base.002
v 1.691386 35.001041 -1.375003
v 1.691386 35.001041 -1.562503
v 0.878886 33.593750 -1.375003
v 0.878886 33.593750 -1.562503
v 0.933614 35.438541 -1.562503
v 0.933614 35.438541 -1.375003
v 0.121114 34.031250 -1.562503
v 0.121114 34.031250 -1.375003
vn -0.0000 -0.0000 -1.0000
vn 0.8660 -0.5000 -0.0000
vn -0.8660 0.5000 -0.0000
vn 0.5000 0.8660 -0.0000
vt 0.219727 0.502930
vt 0.233398 0.502930
vt 0.233398 0.528320
vt 0.219727 0.528320
vt 0.216797 0.502930
vt 0.216797 0.528320
vt 0.236328 0.502930
vt 0.236328 0.528320
vt 0.233398 0.531250
vt 0.219727 0.531250
s 1
usemtl Base
f 68/100/42 71/101/42 69/102/42 66/103/42
f 67/104/43 68/100/43 66/103/43 65/105/43
f 71/101/44 72/106/44 70/107/44 69/102/44
f 70/108/45 65/109/45 66/103/45 69/102/45
o base.003
v 2.126041 34.246113 -1.373753
v 2.126041 34.246113 -1.561253
v 0.718750 33.433613 -1.373752
v 0.718750 33.433613 -1.561252
v 1.688541 35.003887 -1.561253
v 1.688541 35.003887 -1.373753
v 0.281250 34.191387 -1.561253
v 0.281250 34.191387 -1.373753
vn -0.0000 -0.0000 -1.0000
vn 0.5000 -0.8660 -0.0000
vn -0.5000 0.8660 -0.0000
vn 0.8660 0.5000 -0.0000
vt 0.219727 0.502930
vt 0.233398 0.502930
vt 0.233398 0.528320
vt 0.219727 0.528320
vt 0.216797 0.502930
vt 0.216797 0.528320
vt 0.236328 0.502930
vt 0.236328 0.528320
vt 0.233398 0.531250
vt 0.219727 0.531250
s 1
usemtl Base
f 76/110/46 79/111/46 77/112/46 74/113/46
f 75/114/47 76/110/47 74/113/47 73/115/47
f 79/111/48 80/116/48 78/117/48 77/112/48
f 78/118/49 73/119/49 74/113/49 77/112/49
o base.004
v 2.125000 33.375000 -1.375003
v 2.125000 33.375000 -1.562503
v 0.500000 33.375000 -1.375003
v 0.500000 33.375000 -1.562503
v 2.125000 34.250000 -1.562503
v 2.125000 34.250000 -1.375003
v 0.500000 34.250000 -1.562503
v 0.500000 34.250000 -1.375003
vn -0.0000 -0.0000 -1.0000
vn -0.0000 -1.0000 -0.0000
vn -0.0000 1.0000 -0.0000
vn 1.0000 -0.0000 -0.0000
vt 0.219727 0.502930
vt 0.233398 0.502930
vt 0.233398 0.528320
vt 0.219727 0.528320
vt 0.216797 0.502930
vt 0.216797 0.528320
vt 0.236328 0.502930
vt 0.236328 0.528320
vt 0.233398 0.531250
vt 0.219727 0.531250
s 1
usemtl Base
f 84/120/50 87/121/50 85/122/50 82/123/50
f 83/124/51 84/120/51 82/123/51 81/125/51
f 87/121/52 88/126/52 86/127/52 85/122/52
f 86/128/53 81/129/53 82/123/53 85/122/53
o base.005
v 0.937500 35.437500 -1.373753
v 0.937500 35.437500 -1.561253
v 0.937500 33.812500 -1.373752
v 0.937500 33.812500 -1.561252
v 0.062500 35.437500 -1.561253
v 0.062500 35.437500 -1.373753
v 0.062500 33.812500 -1.561252
v 0.062500 33.812500 -1.373752
vn -0.0000 -0.0000 -1.0000
vn 1.0000 -0.0000 -0.0000
vn -1.0000 -0.0000 -0.0000
vn -0.0000 1.0000 -0.0000
vt 0.219727 0.502930
vt 0.233398 0.502930
vt 0.233398 0.528320
vt 0.219727 0.528320
vt 0.216797 0.502930
vt 0.216797 0.528320
vt 0.236328 0.502930
vt 0.236328 0.528320
vt 0.233398 0.531250
vt 0.219727 0.531250
s 1
usemtl Base
f 92/130/54 95/131/54 93/132/54 90/133/54
f 91/134/55 92/130/55 90/133/55 89/135/55
f 95/131/56 96/136/56 94/137/56 93/132/56
f 94/138/57 89/139/57 90/133/57 93/132/57
o base.006
v 1.688541 32.621113 -1.373752
v 1.688541 32.621113 -1.561252
v 0.281250 33.433613 -1.373752
v 0.281250 33.433613 -1.561252
v 2.126041 33.378887 -1.561252
v 2.126041 33.378887 -1.373752
v 0.718750 34.191387 -1.561253
v 0.718750 34.191387 -1.373753
vn -0.0000 -0.0000 -1.0000
vn -0.5000 -0.8660 -0.0000
vn 0.5000 0.8660 -0.0000
vn 0.8660 -0.5000 -0.0000
vt 0.219727 0.502930
vt 0.233398 0.502930
vt 0.233398 0.528320
vt 0.219727 0.528320
vt 0.216797 0.502930
vt 0.216797 0.528320
vt 0.236328 0.502930
vt 0.236328 0.528320
vt 0.233398 0.531250
vt 0.219727 0.531250
s 1
usemtl Base
f 100/140/58 103/141/58 101/142/58 98/143/58
f 99/144/59 100/140/59 98/143/59 97/145/59
f 103/141/60 104/146/60 102/147/60 101/142/60
f 102/148/61 97/149/61 98/143/61 101/142/61
o base.007
v 0.933614 32.186459 -1.375002
v 0.933614 32.186459 -1.562502
v 0.121114 33.593750 -1.375003
v 0.121114 33.593750 -1.562503
v 1.691386 32.623959 -1.562503
v 1.691386 32.623959 -1.375003
v 0.878886 34.031250 -1.562503
v 0.878886 34.031250 -1.375003
vn -0.0000 -0.0000 -1.0000
vn -0.8660 -0.5000 -0.0000
vn 0.8660 0.5000 -0.0000
vn 0.5000 -0.8660 -0.0000
vt 0.219727 0.502930
vt 0.233398 0.502930
vt 0.233398 0.528320
vt 0.219727 0.528320
vt 0.216797 0.502930
vt 0.216797 0.528320
vt 0.236328 0.502930
vt 0.236328 0.528320
vt 0.233398 0.531250
vt 0.219727 0.531250
s 1
usemtl Base
f 108/150/62 111/151/62 109/152/62 106/153/62
f 107/154/63 108/150/63 106/153/63 105/155/63
f 111/151/64 112/156/64 110/157/64 109/152/64
f 110/158/65 105/159/65 106/153/65 109/152/65
o base.008
v 0.062500 32.187500 -1.373752
v 0.062500 32.187500 -1.561252
v 0.062500 33.812500 -1.373752
v 0.062500 33.812500 -1.561252
v 0.937500 32.187500 -1.561252
v 0.937500 32.187500 -1.373752
v 0.937500 33.812500 -1.561252
v 0.937500 33.812500 -1.373752
vn -0.0000 -0.0000 -1.0000
vn -1.0000 -0.0000 -0.0000
vn 1.0000 -0.0000 -0.0000
vn -0.0000 -1.0000 -0.0000
vt 0.219727 0.502930
vt 0.233398 0.502930
vt 0.233398 0.528320
vt 0.219727 0.528320
vt 0.216797 0.502930
vt 0.216797 0.528320
vt 0.236328 0.502930
vt 0.236328 0.528320
vt 0.233398 0.531250
vt 0.219727 0.531250
s 1
usemtl Base
f 116/160/66 119/161/66 117/162/66 114/163/66
f 115/164/67 116/160/67 114/163/67 113/165/67
f 119/161/68 120/166/68 118/167/68 117/162/68
f 118/168/69 113/169/69 114/163/69 117/162/69
o base.009
v -0.691386 32.623959 -1.375003
v -0.691386 32.623959 -1.562503
v 0.121114 34.031250 -1.375003
v 0.121114 34.031250 -1.562503
v 0.066386 32.186459 -1.562502
v 0.066386 32.186459 -1.375002
v 0.878886 33.593750 -1.562503
v 0.878886 33.593750 -1.375003
vn -0.0000 -0.0000 -1.0000
vn -0.8660 0.5000 -0.0000
vn 0.8660 -0.5000 -0.0000
vn -0.5000 -0.8660 -0.0000
vt 0.219727 0.502930
vt 0.233398 0.502930
vt 0.233398 0.528320
vt 0.219727 0.528320
vt 0.216797 0.502930
vt 0.216797 0.528320
vt 0.236328 0.502930
vt 0.236328 0.528320
vt 0.233398 0.531250
vt 0.219727 0.531250
s 1
usemtl Base
f 124/170/70 127/171/70 125/172/70 122/173/70
f 123/174/71 124/170/71 122/173/71 121/175/71
f 127/171/72 128/176/72 126/177/72 125/172/72
f 126/178/73 121/179/73 122/173/73 125/172/73
o base.010
v -1.126041 33.378887 -1.373752
v -1.126041 33.378887 -1.561252
v 0.281250 34.191387 -1.373753
v 0.281250 34.191387 -1.561253
v -0.688541 32.621113 -1.561252
v -0.688541 32.621113 -1.373752
v 0.718750 33.433613 -1.561252
v 0.718750 33.433613 -1.373752
vn -0.0000 -0.0000 -1.0000
vn -0.5000 0.8660 -0.0000
vn 0.5000 -0.8660 -0.0000
vn -0.8660 -0.5000 -0.0000
vt 0.219727 0.502930
vt 0.233398 0.502930
vt 0.233398 0.528320
vt 0.219727 0.528320
vt 0.216797 0.502930
vt 0.216797 0.528320
vt 0.236328 0.502930
vt 0.236328 0.528320
vt 0.233398 0.531250
vt 0.219727 0.531250
s 1
usemtl Base
f 132/180/74 135/181/74 133/182/74 130/183/74
f 131/184/75 132/180/75 130/183/75 129/185/75
f 135/181/76 136/186/76 134/187/76 133/182/76
f 134/188/77 129/189/77 130/183/77 133/182/77
o base.011
v -1.125000 34.250000 -1.375003
v -1.125000 34.250000 -1.562503
v 0.500000 34.250000 -1.375003
v 0.500000 34.250000 -1.562503
v -1.125000 33.375000 -1.562503
v -1.125000 33.375000 -1.375003
v 0.500000 33.375000 -1.562503
v 0.500000 33.375000 -1.375003
vn -0.0000 -0.0000 -1.0000
vn -0.0000 1.0000 -0.0000
vn -0.0000 -1.0000 -0.0000
vn -1.0000 -0.0000 -0.0000
vt 0.219727 0.502930
vt 0.233398 0.502930
vt 0.233398 0.528320
vt 0.219727 0.528320
vt 0.216797 0.502930
vt 0.216797 0.528320
vt 0.236328 0.502930
vt 0.236328 0.528320
vt 0.233398 0.531250
vt 0.219727 0.531250
s 1
usemtl Base
f 140/190/78 143/191/78 141/192/78 138/193/78
f 139/194/79 140/190/79 138/193/79 137/195/79
f 143/191/80 144/196/80 142/197/80 141/192/80
f 142/198/81 137/199/81 138/193/81 141/192/81
o base.012
v -0.688541 35.003887 -1.373753
v -0.688541 35.003887 -1.561253
v 0.718750 34.191387 -1.373753
v 0.718750 34.191387 -1.561253
v -1.126041 34.246113 -1.561253
v -1.126041 34.246113 -1.373753
v 0.281250 33.433613 -1.561252
v 0.281250 33.433613 -1.373752
vn -0.0000 -0.0000 -1.0000
vn 0.5000 0.8660 -0.0000
vn -0.5000 -0.8660 -0.0000
vn -0.8660 0.5000 -0.0000
vt 0.219727 0.502930
vt 0.233398 0.502930
vt 0.233398 0.528320
vt 0.219727 0.528320
vt 0.216797 0.502930
vt 0.216797 0.528320
vt 0.236328 0.502930
vt 0.236328 0.528320
vt 0.233398 0.531250
vt 0.219727 0.531250
s 1
usemtl Base
f 148/200/82 151/201/82 149/202/82 146/203/82
f 147/204/83 148/200/83 146/203/83 145/205/83
f 151/201/84 152/206/84 150/207/84 149/202/84
f 150/208/85 145/209/85 146/203/85 149/202/85
o base.013
v -0.077425 31.876249 0.739175
v 1.077425 31.876249 0.260820
v -0.077425 31.563749 0.739175
v 1.077425 31.563749 0.260820
v 0.503400 31.876249 -1.124999
v -0.651450 31.876249 -0.646645
v 0.503400 31.563749 -1.124999
v -0.651450 31.563749 -0.646645
vn 0.9239 -0.0000 -0.3827
vn -0.9239 -0.0000 0.3827
vn -0.3827 -0.0000 -0.9239
vn -0.0000 -1.0000 -0.0000
vt 0.457031 0.741211
vt 0.480469 0.741211
vt 0.480469 0.746094
vt 0.457031 0.746094
vt 0.500000 0.741211
vt 0.523438 0.741211
vt 0.523438 0.746094
vt 0.500000 0.746094
vt 0.503906 0.746094
vt 0.480469 0.765625
vt 0.503906 0.765625
s 1
usemtl Base
f 156/210/86 159/211/86 157/212/86 154/213/86
f 160/214/87 155/215/87 153/216/87 158/217/87
f 159/211/88 160/214/88 158/217/88 157/212/88
f 159/218/89 156/212/89 155/219/89 160/220/89
o base.014
v -0.077425 31.875000 0.260820
v 1.077425 31.875000 0.739175
v -0.077425 31.562500 0.260820
v 1.077425 31.562500 0.739175
v 1.651450 31.875000 -0.646645
v 0.496600 31.875000 -1.124999
v 1.651450 31.562500 -0.646645
v 0.496600 31.562500 -1.124999
vn 0.9239 -0.0000 0.3827
vn -0.9239 -0.0000 -0.3827
vn 0.3827 -0.0000 -0.9239
vn -0.0000 -1.0000 -0.0000
vt 0.457031 0.741211
vt 0.480469 0.741211
vt 0.480469 0.746094
vt 0.457031 0.746094
vt 0.500000 0.741211
vt 0.523438 0.741211
vt 0.523438 0.746094
vt 0.500000 0.746094
vt 0.503906 0.746094
vt 0.480469 0.765625
vt 0.503906 0.765625
s 1
usemtl Base
f 164/221/90 167/222/90 165/223/90 162/224/90
f 168/225/91 163/226/91 161/227/91 166/228/91
f 167/222/92 168/225/92 166/228/92 165/223/92
f 167/229/93 164/223/93 163/230/93 168/231/93
o base.015
v 0.260823 31.876249 -0.077427
v 0.739177 31.876249 1.077422
v 0.260823 31.563749 -0.077427
v 0.739177 31.563749 1.077422
v 2.124996 31.876249 0.503397
v 1.646642 31.876249 -0.651452
v 2.124996 31.563749 0.503397
v 1.646642 31.563749 -0.651452
vn 0.3827 -0.0000 0.9239
vn -0.3827 -0.0000 -0.9239
vn 0.9239 -0.0000 -0.3827
vn -0.0000 -1.0000 -0.0000
vt 0.457031 0.741211
vt 0.480469 0.741211
vt 0.480469 0.746094
vt 0.457031 0.746094
vt 0.500000 0.741211
vt 0.523438 0.741211
vt 0.523438 0.746094
vt 0.500000 0.746094
vt 0.503906 0.746094
vt 0.480469 0.765625
vt 0.503906 0.765625
s 1
usemtl Base
f 172/232/94 175/233/94 173/234/94 170/235/94
f 176/236/95 171/237/95 169/238/95 174/239/95
f 175/233/96 176/236/96 174/239/96 173/234/96
f 175/240/97 172/234/97 171/241/97 176/242/97
o base.016
v 0.739177 31.875000 -0.077427
v 0.260823 31.875000 1.077422
v 0.739177 31.562500 -0.077427
v 0.260823 31.562500 1.077422
v 1.646642 31.875000 1.651447
v 2.124996 31.875000 0.496598
v 1.646642 31.562500 1.651447
v 2.124996 31.562500 0.496598
vn -0.3827 -0.0000 0.9239
vn 0.3827 -0.0000 -0.9239
vn 0.9239 -0.0000 0.3827
vn -0.0000 -1.0000 -0.0000
vt 0.457031 0.741211
vt 0.480469 0.741211
vt 0.480469 0.746094
vt 0.457031 0.746094
vt 0.500000 0.741211
vt 0.523438 0.741211
vt 0.523438 0.746094
vt 0.500000 0.746094
vt 0.503906 0.746094
vt 0.480469 0.765625
vt 0.503906 0.765625
s 1
usemtl Base
f 180/243/98 183/244/98 181/245/98 178/246/98
f 184/247/99 179/248/99 177/249/99 182/250/99
f 183/244/100 184/247/100 182/250/100 181/245/100
f 183/251/101 180/245/101 179/252/101 184/253/101
o base.017
v 1.077425 31.876249 0.260820
v -0.077425 31.876249 0.739175
v 1.077425 31.563749 0.260820
v -0.077425 31.563749 0.739175
v 0.496600 31.876249 2.124994
v 1.651450 31.876249 1.646640
v 0.496600 31.563749 2.124994
v 1.651450 31.563749 1.646640
vn -0.9239 -0.0000 0.3827
vn 0.9239 -0.0000 -0.3827
vn 0.3827 -0.0000 0.9239
vn -0.0000 -1.0000 -0.0000
vt 0.457031 0.741211
vt 0.480469 0.741211
vt 0.480469 0.746094
vt 0.457031 0.746094
vt 0.500000 0.741211
vt 0.523438 0.741211
vt 0.523438 0.746094
vt 0.500000 0.746094
vt 0.503906 0.746094
vt 0.480469 0.765625
vt 0.503906 0.765625
s 1
usemtl Base
f 188/254/102 191/255/102 189/256/102 186/257/102
f 192/258/103 187/259/103 185/260/103 190/261/103
f 191/255/104 192/258/104 190/261/104 189/256/104
f 191/262/105 188/256/105 187/263/105 192/264/105
o base.018
v 0.739177 31.876249 1.077422
v 0.260823 31.876249 -0.077427
v 0.739177 31.563749 1.077422
v 0.260823 31.563749 -0.077427
v -1.124996 31.876249 0.496598
v -0.646642 31.876249 1.651447
v -1.124996 31.563749 0.496598
v -0.646642 31.563749 1.651447
vn -0.3827 -0.0000 -0.9239
vn 0.3827 -0.0000 0.9239
vn -0.9239 -0.0000 0.3827
vn -0.0000 -1.0000 -0.0000
vt 0.457031 0.741211
vt 0.480469 0.741211
vt 0.480469 0.746094
vt 0.457031 0.746094
vt 0.500000 0.741211
vt 0.523438 0.741211
vt 0.523438 0.746094
vt 0.500000 0.746094
vt 0.503906 0.746094
vt 0.480469 0.765625
vt 0.503906 0.765625
s 1
usemtl Base
f 196/265/106 199/266/106 197/267/106 194/268/106
f 200/269/107 195/270/107 193/271/107 198/272/107
f 199/266/108 200/269/108 198/272/108 197/267/108
f 199/273/109 196/267/109 195/274/109 200/275/109
o base.019
v 1.077425 31.875000 0.739175
v -0.077425 31.875000 0.260820
v 1.077425 31.562500 0.739175
v -0.077425 31.562500 0.260820
v -0.651450 31.875000 1.646640
v 0.503400 31.875000 2.124994
v -0.651450 31.562500 1.646640
v 0.503400 31.562500 2.124994
vn -0.9239 -0.0000 -0.3827
vn 0.9239 -0.0000 0.3827
vn -0.3827 -0.0000 0.9239
vn -0.0000 -1.0000 -0.0000
vt 0.457031 0.741211
vt 0.480469 0.741211
vt 0.480469 0.746094
vt 0.457031 0.746094
vt 0.500000 0.741211
vt 0.523438 0.741211
vt 0.523438 0.746094
vt 0.500000 0.746094
vt 0.503906 0.746094
vt 0.480469 0.765625
vt 0.503906 0.765625
s 1
usemtl Base
f 204/276/110 207/277/110 205/278/110 202/279/110
f 208/280/111 203/281/111 201/282/111 206/283/111
f 207/277/112 208/280/112 206/283/112 205/278/112
f 207/284/113 204/278/113 203/285/113 208/286/113
o base_bottom
v 3.500000 0.500000 3.500000
v 3.500000 0.500000 -2.500000
v 3.500000 0.000000 3.500000
v 3.500000 -0.000000 -2.500000
v -2.500000 0.500000 -2.500000
v -2.500000 0.500000 3.500000
v -2.500000 -0.000000 -2.500000
v -2.500000 0.000000 3.500000
vn -0.0000 -0.0000 -1.0000
vn 1.0000 -0.0000 -0.0000
vn -0.0000 -0.0000 1.0000
vn -1.0000 -0.0000 -0.0000
vn -0.0000 1.0000 -0.0000
vn -0.0000 -1.0000 -0.0000
vt 0.218750 0.898438
vt 0.312500 0.898438
vt 0.312500 0.906250
vt 0.218750 0.906250
vt 0.125000 0.898438
vt 0.125000 0.906250
vt 0.406250 0.898438
vt 0.500000 0.898438
vt 0.500000 0.906250
vt 0.406250 0.906250
vt 0.312500 1.000000
vt 0.218750 1.000000
vt 0.406250 1.000000
s 1
usemtl Base
f 212/287/114 215/288/114 213/289/114 210/290/114
f 211/291/115 212/287/115 210/290/115 209/292/115
f 216/293/116 211/294/116 209/295/116 214/296/116
f 215/288/117 216/293/117 214/296/117 213/289/117
f 214/297/118 209/298/118 210/290/118 213/289/118
f 215/296/119 212/289/119 211/297/119 216/299/119
o base_connector
v -1.998432 1.248952 -0.937500
v -2.691342 0.961940 -0.937500
v -1.735337 0.613785 -0.937500
v -2.428247 0.326773 -0.937500
v -2.691342 0.961940 1.937500
v -1.998432 1.248953 1.937500
v -2.428247 0.326773 1.937500
v -1.735337 0.613785 1.937500
vn -0.0000 -0.0000 -1.0000
vn -0.0000 -0.0000 1.0000
vn -0.3827 0.9239 -0.0000
vt 0.414062 0.613281
vt 0.425781 0.613281
vt 0.425781 0.624023
vt 0.414062 0.624023
vt 0.470703 0.613281
vt 0.482422 0.613281
vt 0.482422 0.624023
vt 0.470703 0.624023
vt 0.470703 0.635742
vt 0.425781 0.635742
s 1
usemtl Base
f 219/300/120 220/301/120 218/302/120 217/303/120
f 223/304/121 224/305/121 222/306/121 221/307/121
f 222/308/122 217/309/122 218/302/122 221/307/122
o base_connector.001
v 2.998432 1.248953 1.937500
v 3.691342 0.961940 1.937500
v 2.735337 0.613785 1.937500
v 3.428247 0.326773 1.937500
v 3.691342 0.961940 -0.937500
v 2.998432 1.248952 -0.937500
v 3.428247 0.326773 -0.937500
v 2.735337 0.613785 -0.937500
vn -0.0000 -0.0000 1.0000
vn -0.0000 -0.0000 -1.0000
vn 0.3827 0.9239 -0.0000
vt 0.414062 0.613281
vt 0.425781 0.613281
vt 0.425781 0.624023
vt 0.414062 0.624023
vt 0.470703 0.613281
vt 0.482422 0.613281
vt 0.482422 0.624023
vt 0.470703 0.624023
vt 0.470703 0.635742
vt 0.425781 0.635742
s 1
usemtl Base
f 227/310/123 228/311/123 226/312/123 225/313/123
f 231/314/124 232/315/124 230/316/124 229/317/124
f 230/318/125 225/319/125 226/312/125 229/317/125
o base_connector.002
v 1.937500 0.961940 3.691342
v 1.937500 1.248953 2.998432
v 1.937500 0.326773 3.428247
v 1.937500 0.613785 2.735337
v -0.937500 1.248953 2.998432
v -0.937500 0.961940 3.691342
v -0.937500 0.613785 2.735337
v -0.937500 0.326773 3.428247
vn 1.0000 -0.0000 -0.0000
vn -1.0000 -0.0000 -0.0000
vn -0.0000 0.9239 0.3827
vt 0.414062 0.613281
vt 0.425781 0.613281
vt 0.425781 0.624023
vt 0.414062 0.624023
vt 0.470703 0.613281
vt 0.482422 0.613281
vt 0.482422 0.624023
vt 0.470703 0.624023
vt 0.470703 0.635742
vt 0.425781 0.635742
s 1
usemtl Base
f 235/320/126 236/321/126 234/322/126 233/323/126
f 239/324/127 240/325/127 238/326/127 237/327/127
f 238/328/128 233/329/128 234/322/128 237/327/128
o base_connector.003
v 1.937500 1.248952 -1.998432
v 1.937500 0.961940 -2.691342
v 1.937500 0.613785 -1.735337
v 1.937500 0.326772 -2.428247
v -0.937500 0.961940 -2.691342
v -0.937500 1.248952 -1.998432
v -0.937500 0.326772 -2.428247
v -0.937500 0.613785 -1.735337
vn 1.0000 -0.0000 -0.0000
vn -1.0000 -0.0000 -0.0000
vn -0.0000 0.9239 -0.3827
vt 0.414062 0.613281
vt 0.425781 0.613281
vt 0.425781 0.624023
vt 0.414062 0.624023
vt 0.470703 0.613281
vt 0.482422 0.613281
vt 0.482422 0.624023
vt 0.470703 0.624023
vt 0.470703 0.635742
vt 0.425781 0.635742
s 1
usemtl Base
f 243/330/129 244/331/129 242/332/129 241/333/129
f 247/334/130 248/335/130 246/336/130 245/337/130
f 246/338/131 241/339/131 242/332/131 245/337/131
o base_connector_side
v -2.500000 1.000000 -1.000000
v -2.937500 1.000000 -1.000000
v -2.500000 -0.000000 -1.000000
v -2.937500 -0.000000 -1.000000
v -2.937500 1.000000 2.000000
v -2.500000 1.000000 2.000000
v -2.937500 0.000000 2.000000
v -2.500000 0.000000 2.000000
vn -1.0000 -0.0000 -0.0000
vn -0.0000 -0.0000 -1.0000
vn 1.0000 -0.0000 -0.0000
vn -0.0000 -0.0000 1.0000
vn -0.0000 1.0000 -0.0000
vn -0.0000 -1.0000 -0.0000
vt 0.420898 0.590820
vt 0.467773 0.590820
vt 0.467773 0.606445
vt 0.420898 0.606445
vt 0.414062 0.590820
vt 0.414062 0.606445
vt 0.474609 0.590820
vt 0.521484 0.590820
vt 0.521484 0.606445
vt 0.474609 0.606445
vt 0.467773 0.613281
vt 0.420898 0.613281
vt 0.514648 0.606445
vt 0.514648 0.613281
s 1
usemtl Base
f 252/340/132 255/341/132 253/342/132 250/343/132
f 251/344/133 252/340/133 250/343/133 249/345/133
f 256/346/134 251/347/134 249/348/134 254/349/134
f 255/341/135 256/346/135 254/349/135 253/342/135
f 254/350/136 249/351/136 250/343/136 253/342/136
f 255/352/137 252/342/137 251/350/137 256/353/137
o base_connector_side.001
v 3.500000 1.000000 2.000000
v 3.937500 1.000000 2.000000
v 3.500000 0.000000 2.000000
v 3.937500 0.000000 2.000000
v 3.937500 1.000000 -1.000000
v 3.500000 1.000000 -1.000000
v 3.937500 -0.000000 -1.000000
v 3.500000 -0.000000 -1.000000
vn 1.0000 -0.0000 -0.0000
vn -0.0000 -0.0000 1.0000
vn -1.0000 -0.0000 -0.0000
vn -0.0000 -0.0000 -1.0000
vn -0.0000 1.0000 -0.0000
vn -0.0000 -1.0000 -0.0000
vt 0.420898 0.590820
vt 0.467773 0.590820
vt 0.467773 0.606445
vt 0.420898 0.606445
vt 0.414062 0.590820
vt 0.414062 0.606445
vt 0.474609 0.590820
vt 0.521484 0.590820
vt 0.521484 0.606445
vt 0.474609 0.606445
vt 0.467773 0.613281
vt 0.420898 0.613281
vt 0.514648 0.606445
vt 0.514648 0.613281
s 1
usemtl Base
f 260/354/138 263/355/138 261/356/138 258/357/138
f 259/358/139 260/354/139 258/357/139 257/359/139
f 264/360/140 259/361/140 257/362/140 262/363/140
f 263/355/141 264/360/141 262/363/141 261/356/141
f 262/364/142 257/365/142 258/357/142 261/356/142
f 263/366/143 260/356/143 259/364/143 264/367/143
o base_connector_side.002
v 2.000000 1.000000 -2.500000
v 2.000000 1.000000 -2.937500
v 2.000000 -0.000000 -2.500000
v 2.000000 -0.000000 -2.937500
v -1.000000 1.000000 -2.937500
v -1.000000 1.000000 -2.500000
v -1.000000 -0.000000 -2.937500
v -1.000000 -0.000000 -2.500000
vn -0.0000 -0.0000 -1.0000
vn 1.0000 -0.0000 -0.0000
vn -0.0000 -0.0000 1.0000
vn -1.0000 -0.0000 -0.0000
vn -0.0000 1.0000 -0.0000
vn -0.0000 -1.0000 -0.0000
vt 0.420898 0.590820
vt 0.467773 0.590820
vt 0.467773 0.606445
vt 0.420898 0.606445
vt 0.414062 0.590820
vt 0.414062 0.606445
vt 0.474609 0.590820
vt 0.521484 0.590820
vt 0.521484 0.606445
vt 0.474609 0.606445
vt 0.467773 0.613281
vt 0.420898 0.613281
vt 0.514648 0.606445
vt 0.514648 0.613281
s 1
usemtl Base
f 268/368/144 271/369/144 269/370/144 266/371/144
f 267/372/145 268/368/145 266/371/145 265/373/145
f 272/374/146 267/375/146 265/376/146 270/377/146
f 271/369/147 272/374/147 270/377/147 269/370/147
f 270/378/148 265/379/148 266/371/148 269/370/148
f 271/380/149 268/370/149 267/378/149 272/381/149
o base_middle
v 3.000000 1.500000 3.000000
v 3.000000 1.500000 -2.000000
v 3.000000 0.500000 3.000000
v 3.000000 0.500000 -2.000000
v -2.000000 1.500000 -2.000000
v -2.000000 1.500000 3.000000
v -2.000000 0.500000 -2.000000
v -2.000000 0.500000 3.000000
vn -0.0000 -0.0000 -1.0000
vn 1.0000 -0.0000 -0.0000
vn -0.0000 -0.0000 1.0000
vn -1.0000 -0.0000 -0.0000
vn -0.0000 1.0000 -0.0000
vt 0.203125 0.666016
vt 0.281250 0.666016
vt 0.281250 0.681641
vt 0.203125 0.681641
vt 0.125000 0.666016
vt 0.125000 0.681641
vt 0.359375 0.666016
vt 0.437500 0.666016
vt 0.437500 0.681641
vt 0.359375 0.681641
vt 0.281250 0.759766
vt 0.203125 0.759766
s 1
usemtl Base
f 276/382/150 279/383/150 277/384/150 274/385/150
f 275/386/151 276/382/151 274/385/151 273/387/151
f 280/388/152 275/389/152 273/390/152 278/391/152
f 279/383/153 280/388/153 278/391/153 277/384/153
f 278/392/154 273/393/154 274/385/154 277/384/154
o body_base
v 2.812500 2.000000 2.812500
v 2.812500 2.000000 -1.812500
v 2.812500 1.500000 2.812500
v 2.812500 1.500000 -1.812500
v -1.812500 2.000000 -1.812500
v -1.812500 2.000000 2.812500
v -1.812500 1.500000 -1.812500
v -1.812500 1.500000 2.812500
vn -0.0000 -0.0000 -1.0000
vn 1.0000 -0.0000 -0.0000
vn -0.0000 -0.0000 1.0000
vn -1.0000 -0.0000 -0.0000
vn -0.0000 1.0000 -0.0000
vt 0.197266 0.585938
vt 0.269531 0.585938
vt 0.269531 0.593750
vt 0.197266 0.593750
vt 0.125000 0.585938
vt 0.125000 0.593750
vt 0.341797 0.585938
vt 0.414062 0.585938
vt 0.414062 0.593750
vt 0.341797 0.593750
vt 0.269531 0.666016
vt 0.197266 0.666016
s 1
usemtl Base
f 284/394/155 287/395/155 285/396/155 282/397/155
f 283/398/156 284/394/156 282/397/156 281/399/156
f 288/400/157 283/401/157 281/402/157 286/403/157
f 287/395/158 288/400/158 286/403/158 285/396/158
f 286/404/159 281/405/159 282/397/159 285/396/159
o cube
v 2.000000 2.125000 3.875000
v 2.000000 2.125000 2.812500
v 2.000000 2.000000 3.875000
v 2.000000 2.000000 2.812500
v -1.000000 2.125000 2.812500
v -1.000000 2.125000 3.875000
v -1.000000 2.000000 2.812500
v -1.000000 2.000000 3.875000
vn -0.0000 -0.0000 -1.0000
vn 1.0000 -0.0000 -0.0000
vn -0.0000 -0.0000 1.0000
vn -1.0000 -0.0000 -0.0000
vn -0.0000 1.0000 -0.0000
vn -0.0000 -1.0000 -0.0000
vt 0.327148 0.567383
vt 0.374023 0.567383
vt 0.374023 0.569336
vt 0.327148 0.569336
vt 0.310547 0.567383
vt 0.310547 0.569336
vt 0.390625 0.567383
vt 0.437500 0.567383
vt 0.437500 0.569336
vt 0.390625 0.569336
vt 0.374023 0.585938
vt 0.327148 0.585938
vt 0.420898 0.569336
vt 0.420898 0.585938
s 1
usemtl Base
f 292/406/160 295/407/160 293/408/160 290/409/160
f 291/410/161 292/406/161 290/409/161 289/411/161
f 296/412/162 291/413/162 289/414/162 294/415/162
f 295/407/163 296/412/163 294/415/163 293/408/163
f 294/416/164 289/417/164 290/409/164 293/408/164
f 295/418/165 292/408/165 291/416/165 296/419/165
o door
v 1.000000 4.000000 -1.250000
v 1.000000 4.000000 -1.375000
v 1.000000 2.000000 -1.250000
v 1.000000 2.000000 -1.375000
v 0.000000 4.000000 -1.375000
v 0.000000 4.000000 -1.250000
v 0.000000 2.000000 -1.375000
v 0.000000 2.000000 -1.250000
vn -0.0000 -0.0000 -1.0000
vn 1.0000 -0.0000 -0.0000
vn -1.0000 -0.0000 -0.0000
vn -0.0000 1.0000 -0.0000
vt 0.412109 0.512695
vt 0.427734 0.512695
vt 0.427734 0.543945
vt 0.412109 0.543945
vt 0.410156 0.512695
vt 0.410156 0.543945
vt 0.429688 0.512695
vt 0.429688 0.543945
vt 0.427734 0.545898
vt 0.412109 0.545898
s 1
usemtl Base
f 300/420/166 303/421/166 301/422/166 298/423/166
f 299/424/167 300/420/167 298/423/167 297/425/167
f 303/421/168 304/426/168 302/427/168 301/422/168
f 302/428/169 297/429/169 298/423/169 301/422/169
o handle
v 1.500000 35.812500 2.687497
v 1.500000 35.812500 2.187497
v 1.500000 35.750000 2.687497
v 1.500000 35.750000 2.187497
v 1.437500 35.812500 2.187497
v 1.437500 35.812500 2.687497
v 1.437500 35.750000 2.187497
v 1.437500 35.750000 2.687497
vn -0.0000 -0.0000 -1.0000
vn 1.0000 -0.0000 -0.0000
vn -0.0000 -0.0000 1.0000
vn -1.0000 -0.0000 -0.0000
vn -0.0000 1.0000 -0.0000
vn -0.0000 -1.0000 -0.0000
vt 0.496094 0.539062
vt 0.497070 0.539062
vt 0.497070 0.540039
vt 0.496094 0.540039
vt 0.488281 0.539062
vt 0.488281 0.540039
vt 0.504883 0.539062
vt 0.505859 0.539062
vt 0.505859 0.540039
vt 0.504883 0.540039
vt 0.497070 0.547852
vt 0.496094 0.547852
vt 0.498047 0.540039
vt 0.498047 0.547852
s 1
usemtl Base
f 308/430/170 311/431/170 309/432/170 306/433/170
f 307/434/171 308/430/171 306/433/171 305/435/171
f 312/436/172 307/437/172 305/438/172 310/439/172
f 311/431/173 312/436/173 310/439/173 309/432/173
f 310/440/174 305/441/174 306/433/174 309/432/174
f 311/442/175 308/432/175 307/440/175 312/443/175
o handle.001
v 0.125000 3.312500 -1.375000
v 0.125000 3.312500 -1.437500
v 0.125000 2.687500 -1.375000
v 0.125000 2.687500 -1.437500
v 0.062500 3.312500 -1.437500
v 0.062500 3.312500 -1.375000
v 0.062500 2.687500 -1.437500
v 0.062500 2.687500 -1.375000
vn -0.0000 -0.0000 -1.0000
vn 1.0000 -0.0000 -0.0000
vn -0.0000 -0.0000 1.0000
vn -1.0000 -0.0000 -0.0000
vn -0.0000 1.0000 -0.0000
vn -0.0000 -1.0000 -0.0000
vt 0.467773 0.504883
vt 0.468750 0.504883
vt 0.468750 0.514648
vt 0.467773 0.514648
vt 0.466797 0.504883
vt 0.466797 0.514648
vt 0.469727 0.504883
vt 0.470703 0.504883
vt 0.470703 0.514648
vt 0.469727 0.514648
vt 0.468750 0.515625
vt 0.467773 0.515625
vt 0.469727 0.515625
s 1
usemtl Base
f 316/444/176 319/445/176 317/446/176 314/447/176
f 315/448/177 316/444/177 314/447/177 313/449/177
f 320/450/178 315/451/178 313/452/178 318/453/178
f 319/445/179 320/450/179 318/453/179 317/446/179
f 318/454/180 313/455/180 314/447/180 317/446/180
f 319/453/181 316/446/181 315/454/181 320/456/181
o handle.002
v 0.937500 3.312500 -1.375000
v 0.937500 3.312500 -1.437500
v 0.937500 2.687500 -1.375000
v 0.937500 2.687500 -1.437500
v 0.875000 3.312500 -1.437500
v 0.875000 3.312500 -1.375000
v 0.875000 2.687500 -1.437500
v 0.875000 2.687500 -1.375000
vn -0.0000 -0.0000 -1.0000
vn 1.0000 -0.0000 -0.0000
vn -0.0000 -0.0000 1.0000
vn -1.0000 -0.0000 -0.0000
vn -0.0000 1.0000 -0.0000
vn -0.0000 -1.0000 -0.0000
vt 0.467773 0.504883
vt 0.468750 0.504883
vt 0.468750 0.514648
vt 0.467773 0.514648
vt 0.466797 0.504883
vt 0.466797 0.514648
vt 0.469727 0.504883
vt 0.470703 0.504883
vt 0.470703 0.514648
vt 0.469727 0.514648
vt 0.468750 0.515625
vt 0.467773 0.515625
vt 0.469727 0.515625
s 1
usemtl Base
f 324/457/182 327/458/182 325/459/182 322/460/182
f 323/461/183 324/457/183 322/460/183 321/462/183
f 328/463/184 323/464/184 321/465/184 326/466/184
f 327/458/185 328/463/185 326/466/185 325/459/185
f 326/467/186 321/468/186 322/460/186 325/459/186
f 327/466/187 324/459/187 323/467/187 328/469/187
o handle.003
v -0.437500 35.812500 2.687497
v -0.437500 35.812500 2.187497
v -0.437500 35.750000 2.687497
v -0.437500 35.750000 2.187497
v -0.500000 35.812500 2.187497
v -0.500000 35.812500 2.687497
v -0.500000 35.750000 2.187497
v -0.500000 35.750000 2.687497
vn -0.0000 -0.0000 -1.0000
vn 1.0000 -0.0000 -0.0000
vn -0.0000 -0.0000 1.0000
vn -1.0000 -0.0000 -0.0000
vn -0.0000 1.0000 -0.0000
vn -0.0000 -1.0000 -0.0000
vt 0.496094 0.539062
vt 0.497070 0.539062
vt 0.497070 0.540039
vt 0.496094 0.540039
vt 0.488281 0.539062
vt 0.488281 0.540039
vt 0.504883 0.539062
vt 0.505859 0.539062
vt 0.505859 0.540039
vt 0.504883 0.540039
vt 0.497070 0.547852
vt 0.496094 0.547852
vt 0.498047 0.540039
vt 0.498047 0.547852
s 1
usemtl Base
f 332/470/188 335/471/188 333/472/188 330/473/188
f 331/474/189 332/470/189 330/473/189 329/475/189
f 336/476/190 331/477/190 329/478/190 334/479/190
f 335/471/191 336/476/191 334/479/191 333/472/191
f 334/480/192 329/481/192 330/473/192 333/472/192
f 335/482/193 332/472/193 331/480/193 336/483/193
o handle.004
v 0.375000 35.812500 2.687497
v 0.375000 35.812500 2.187497
v 0.375000 35.750000 2.687497
v 0.375000 35.750000 2.187497
v 0.312500 35.812500 2.187497
v 0.312500 35.812500 2.687497
v 0.312500 35.750000 2.187497
v 0.312500 35.750000 2.687497
vn -0.0000 -0.0000 -1.0000
vn 1.0000 -0.0000 -0.0000
vn -0.0000 -0.0000 1.0000
vn -1.0000 -0.0000 -0.0000
vn -0.0000 1.0000 -0.0000
vn -0.0000 -1.0000 -0.0000
vt 0.496094 0.539062
vt 0.497070 0.539062
vt 0.497070 0.540039
vt 0.496094 0.540039
vt 0.488281 0.539062
vt 0.488281 0.540039
vt 0.504883 0.539062
vt 0.505859 0.539062
vt 0.505859 0.540039
vt 0.504883 0.540039
vt 0.497070 0.547852
vt 0.496094 0.547852
vt 0.498047 0.540039
vt 0.498047 0.547852
s 1
usemtl Base
f 340/484/194 343/485/194 341/486/194 338/487/194
f 339/488/195 340/484/195 338/487/195 337/489/195
f 344/490/196 339/491/196 337/492/196 342/493/196
f 343/485/197 344/490/197 342/493/197 341/486/197
f 342/494/198 337/495/198 338/487/198 341/486/198
f 343/496/199 340/486/199 339/494/199 344/497/199
o handle.005
v 0.687500 35.812500 2.687497
v 0.687500 35.812500 2.187497
v 0.687500 35.750000 2.687497
v 0.687500 35.750000 2.187497
v 0.625000 35.812500 2.187497
v 0.625000 35.812500 2.687497
v 0.625000 35.750000 2.187497
v 0.625000 35.750000 2.687497
vn -0.0000 -0.0000 -1.0000
vn 1.0000 -0.0000 -0.0000
vn -0.0000 -0.0000 1.0000
vn -1.0000 -0.0000 -0.0000
vn -0.0000 1.0000 -0.0000
vn -0.0000 -1.0000 -0.0000
vt 0.496094 0.539062
vt 0.497070 0.539062
vt 0.497070 0.540039
vt 0.496094 0.540039
vt 0.488281 0.539062
vt 0.488281 0.540039
vt 0.504883 0.539062
vt 0.505859 0.539062
vt 0.505859 0.540039
vt 0.504883 0.540039
vt 0.497070 0.547852
vt 0.496094 0.547852
vt 0.498047 0.540039
vt 0.498047 0.547852
s 1
usemtl Base
f 348/498/200 351/499/200 349/500/200 346/501/200
f 347/502/201 348/498/201 346/501/201 345/503/201
f 352/504/202 347/505/202 345/506/202 350/507/202
f 351/499/203 352/504/203 350/507/203 349/500/203
f 350/508/204 345/509/204 346/501/204 349/500/204
f 351/510/205 348/500/205 347/508/205 352/511/205
o keyboard
v 0.937500 0.910859 3.821779
v 0.937500 1.054365 3.475324
v 0.937500 0.853116 3.797861
v 0.937500 0.996622 3.451407
v 0.062500 1.054365 3.475324
v 0.062500 0.910859 3.821779
v 0.062500 0.996622 3.451407
v 0.062500 0.853116 3.797861
vn -0.0000 0.3827 -0.9239
vn 1.0000 -0.0000 -0.0000
vn -0.0000 -0.3827 0.9239
vn -1.0000 -0.0000 -0.0000
vn -0.0000 0.9239 0.3827
vn -0.0000 -0.9239 -0.3827
vt 0.443359 0.672852
vt 0.457031 0.672852
vt 0.457031 0.673828
vt 0.443359 0.673828
vt 0.437500 0.672852
vt 0.437500 0.673828
vt 0.462891 0.672852
vt 0.476562 0.672852
vt 0.476562 0.673828
vt 0.462891 0.673828
vt 0.457031 0.679688
vt 0.443359 0.679688
vt 0.470703 0.673828
vt 0.470703 0.679688
s 1
usemtl Base
f 356/512/206 359/513/206 357/514/206 354/515/206
f 355/516/207 356/512/207 354/515/207 353/517/207
f 360/518/208 355/519/208 353/520/208 358/521/208
f 359/513/209 360/518/209 358/521/209 357/514/209
f 358/522/210 353/523/210 354/515/210 357/514/210
f 359/524/211 356/514/211 355/522/211 360/525/211
o pillar1
v 1.527461 31.979443 1.527189
v 1.528831 31.927107 -0.472126
v 2.312500 2.000000 2.312500
v 2.313870 1.947664 0.313185
v -0.470484 31.874754 -0.472126
v -0.471854 31.927090 1.527189
v 0.314556 1.895310 0.313185
v 0.313185 1.947646 2.312500
vn 0.0007 -0.0262 -0.9997
vn 0.9997 0.0262 -0.0000
vn -0.0007 0.0262 0.9997
vn -0.9997 -0.0262 -0.0000
vt 0.031250 0.500000
vt 0.062500 0.500000
vt 0.062500 0.968750
vt 0.031250 0.968750
vt 0.000000 0.500000
vt 0.000000 0.968750
vt 0.093750 0.500000
vt 0.125000 0.500000
vt 0.125000 0.968750
vt 0.093750 0.968750
s 1
usemtl Base
f 364/526/212 367/527/212 365/528/212 362/529/212
f 363/530/213 364/526/213 362/529/213 361/531/213
f 368/532/214 363/533/214 361/534/214 366/535/214
f 367/527/215 368/532/215 366/535/215 365/528/215
o pillar2
v 1.525317 31.979328 -0.524965
v -0.473997 31.926992 -0.526336
v 2.310626 1.999885 -1.310002
v 0.311311 1.947549 -1.311373
v -0.473997 31.874640 1.472979
v 1.525317 31.926975 1.474349
v 0.311311 1.895196 0.687942
v 2.310626 1.947532 0.689312
vn -0.9997 -0.0262 -0.0007
vn -0.0000 0.0262 -0.9997
vn 0.9997 0.0262 0.0007
vn -0.0000 -0.0262 0.9997
vt 0.031250 0.500000
vt 0.062500 0.500000
vt 0.062500 0.968750
vt 0.031250 0.968750
vt 0.000000 0.500000
vt 0.000000 0.968750
vt 0.093750 0.500000
vt 0.125000 0.500000
vt 0.125000 0.968750
vt 0.093750 0.968750
s 1
usemtl Base
f 372/536/216 375/537/216 373/538/216 370/539/216
f 371/540/217 372/536/217 370/539/217 369/541/217
f 376/542/218 371/543/218 369/544/218 374/545/218
f 375/537/219 376/542/219 374/545/219 373/538/219
o pillar3
v -0.527461 31.979443 -0.527194
v -0.528831 31.927107 1.472121
v -1.312500 2.000000 -1.312500
v -1.313870 1.947664 0.686815
v 1.470484 31.874754 1.472121
v 1.471854 31.927090 -0.527194
v 0.685444 1.895310 0.686815
v 0.686815 1.947646 -1.312500
vn -0.0007 -0.0262 0.9997
vn -0.9997 0.0262 -0.0000
vn 0.0007 0.0262 -0.9997
vn 0.9997 -0.0262 -0.0000
vt 0.031250 0.500000
vt 0.062500 0.500000
vt 0.062500 0.968750
vt 0.031250 0.968750
vt 0.000000 0.500000
vt 0.000000 0.968750
vt 0.093750 0.500000
vt 0.125000 0.500000
vt 0.125000 0.968750
vt 0.093750 0.968750
s 1
usemtl Base
f 380/546/220 383/547/220 381/548/220 378/549/220
f 379/550/221 380/546/221 378/549/221 377/551/221
f 384/552/222 379/553/222 377/554/222 382/555/222
f 383/547/223 384/552/223 382/555/223 381/548/223
o pillar4
v -0.525942 31.979361 1.525585
v 1.473373 31.927025 1.526955
v -1.311250 1.999918 2.310626
v 0.688064 1.947582 2.311997
v 1.473373 31.874672 -0.472359
v -0.525942 31.927008 -0.473730
v 0.688064 1.895228 0.312682
v -1.311250 1.947564 0.311312
vn 0.9997 -0.0262 0.0007
vn -0.0000 0.0262 0.9997
vn -0.9997 0.0262 -0.0007
vn -0.0000 -0.0262 -0.9997
vt 0.031250 0.500000
vt 0.062500 0.500000
vt 0.062500 0.968750
vt 0.031250 0.968750
vt 0.000000 0.500000
vt 0.000000 0.968750
vt 0.093750 0.500000
vt 0.125000 0.500000
vt 0.125000 0.968750
vt 0.093750 0.968750
s 1
usemtl Base
f 388/556/224 391/557/224 389/558/224 386/559/224
f 387/560/225 388/556/225 386/559/225 385/561/225
f 392/562/226 387/563/226 385/564/226 390/565/226
f 391/557/227 392/562/227 390/565/227 389/558/227
o port_middle
v 4.001250 0.812500 0.187500
v 4.001250 0.187500 0.187500
v 4.001250 0.812500 0.812500
v 4.001250 0.187500 0.812500
vn 1.0000 -0.0000 -0.0000
vt 0.410156 0.502930
vt 0.419922 0.502930
vt 0.419922 0.512695
vt 0.410156 0.512695
s 1
usemtl Base
f 396/566/228 394/567/228 393/568/228 395/569/228
o port_middle.001
v -3.001250 0.812500 0.812500
v -3.001250 0.187500 0.812500
v -3.001250 0.812500 0.187500
v -3.001250 0.187500 0.187500
vn -1.0000 -0.0000 -0.0000
vt 0.410156 0.502930
vt 0.419922 0.502930
vt 0.419922 0.512695
vt 0.410156 0.512695
s 1
usemtl Base
f 400/570/229 398/571/229 397/572/229 399/573/229
o port_middle.002
v 0.812500 0.812500 -3.000000
v 0.812500 0.187500 -3.000000
v 0.187500 0.812500 -3.000000
v 0.187500 0.187500 -3.000000
vn -0.0000 -0.0000 -1.0000
vt 0.410156 0.502930
vt 0.419922 0.502930
vt 0.419922 0.512695
vt 0.410156 0.512695
s 1
usemtl Base
f 402/574/230 404/575/230 403/576/230 401/577/230
o port_middle.003
v 0.812500 0.812500 -2.937500
v 0.812500 0.812500 -3.000000
v 0.812500 0.187500 -2.937500
v 0.812500 0.187500 -3.000000
v 0.187500 0.812500 -3.000000
v 0.187500 0.812500 -2.937500
v 0.187500 0.187500 -3.000000
v 0.187500 0.187500 -2.937500
vn -0.0000 -0.0000 -1.0000
vn 1.0000 -0.0000 -0.0000
vn -1.0000 -0.0000 -0.0000
vn -0.0000 1.0000 -0.0000
vn -0.0000 -1.0000 -0.0000
vt 0.446289 0.504883
vt 0.456055 0.504883
vt 0.456055 0.514648
vt 0.446289 0.514648
vt 0.445312 0.504883
vt 0.445312 0.514648
vt 0.457031 0.504883
vt 0.457031 0.514648
vt 0.456055 0.515625
vt 0.446289 0.515625
vt 0.465820 0.514648
vt 0.465820 0.515625
s 1
usemtl Base
f 408/578/231 411/579/231 409/580/231 406/581/231
f 407/582/232 408/578/232 406/581/232 405/583/232
f 411/579/233 412/584/233 410/585/233 409/580/233
f 410/586/234 405/587/234 406/581/234 409/580/234
f 411/588/235 408/580/235 407/586/235 412/589/235
o port_middle.004
v 4.000000 0.812500 0.187500
v 3.937500 0.812500 0.187500
v 4.000000 0.187500 0.187500
v 3.937500 0.187500 0.187500
v 3.937500 0.812500 0.812500
v 4.000000 0.812500 0.812500
v 3.937500 0.187500 0.812500
v 4.000000 0.187500 0.812500
vn -0.0000 -0.0000 -1.0000
vn 1.0000 -0.0000 -0.0000
vn -0.0000 -0.0000 1.0000
vn -0.0000 1.0000 -0.0000
vn -0.0000 -1.0000 -0.0000
vt 0.445312 0.504883
vt 0.446289 0.504883
vt 0.446289 0.514648
vt 0.445312 0.514648
vt 0.457031 0.504883
vt 0.466797 0.504883
vt 0.466797 0.514648
vt 0.457031 0.514648
vt 0.456055 0.504883
vt 0.456055 0.514648
vt 0.456055 0.515625
vt 0.446289 0.515625
vt 0.465820 0.514648
vt 0.465820 0.515625
s 1
usemtl Base
f 415/590/236 416/591/236 414/592/236 413/593/236
f 420/594/237 415/595/237 413/596/237 418/597/237
f 419/598/238 420/594/238 418/597/238 417/599/238
f 418/600/239 413/601/239 414/592/239 417/599/239
f 419/602/240 416/599/240 415/600/240 420/603/240
o port_middle.005
v -3.000000 0.812500 0.812500
v -2.937500 0.812500 0.812500
v -3.000000 0.187500 0.812500
v -2.937500 0.187500 0.812500
v -2.937500 0.812500 0.187500
v -3.000000 0.812500 0.187500
v -2.937500 0.187500 0.187500
v -3.000000 0.187500 0.187500
vn -0.0000 -0.0000 1.0000
vn -1.0000 -0.0000 -0.0000
vn -0.0000 -0.0000 -1.0000
vn -0.0000 1.0000 -0.0000
vn -0.0000 -1.0000 -0.0000
vt 0.445312 0.504883
vt 0.446289 0.504883
vt 0.446289 0.514648
vt 0.445312 0.514648
vt 0.457031 0.504883
vt 0.466797 0.504883
vt 0.466797 0.514648
vt 0.457031 0.514648
vt 0.456055 0.504883
vt 0.456055 0.514648
vt 0.456055 0.515625
vt 0.446289 0.515625
vt 0.465820 0.514648
vt 0.465820 0.515625
s 1
usemtl Base
f 423/604/241 424/605/241 422/606/241 421/607/241
f 428/608/242 423/609/242 421/610/242 426/611/242
f 427/612/243 428/608/243 426/611/243 425/613/243
f 426/614/244 421/615/244 422/606/244 425/613/244
f 427/616/245 424/613/245 423/614/245 428/617/245
o port_side
v -3.001250 0.750000 -0.250000
v -3.001250 0.250000 -0.250000
v -3.001250 0.750000 -0.750000
v -3.001250 0.250000 -0.750000
vn -1.0000 -0.0000 -0.0000
vt 0.429688 0.504883
vt 0.437500 0.504883
vt 0.437500 0.512695
vt 0.429688 0.512695
s 1
usemtl Base
f 432/618/246 430/619/246 429/620/246 431/621/246
o port_side.001
v 4.001250 0.750000 1.250000
v 4.001250 0.250000 1.250000
v 4.001250 0.750000 1.750000
v 4.001250 0.250000 1.750000
vn 1.0000 -0.0000 -0.0000
vt 0.429688 0.504883
vt 0.437500 0.504883
vt 0.437500 0.512695
vt 0.429688 0.512695
s 1
usemtl Base
f 436/622/247 434/623/247 433/624/247 435/625/247
o port_side.002
v -3.000000 0.750000 -0.250000
v -2.937500 0.750000 -0.250000
v -3.000000 0.250000 -0.250000
v -2.937500 0.250000 -0.250000
v -2.937500 0.750000 -0.750000
v -3.000000 0.750000 -0.750000
v -2.937500 0.250000 -0.750000
v -3.000000 0.250000 -0.750000
vn -0.0000 -0.0000 1.0000
vn -1.0000 -0.0000 -0.0000
vn -0.0000 -0.0000 -1.0000
vn -0.0000 1.0000 -0.0000
vn -0.0000 -1.0000 -0.0000
vt 0.250000 0.502930
vt 0.250977 0.502930
vt 0.250977 0.510742
vt 0.250000 0.510742
vt 0.259766 0.502930
vt 0.267578 0.502930
vt 0.267578 0.510742
vt 0.259766 0.510742
vt 0.258789 0.502930
vt 0.258789 0.510742
vt 0.258789 0.511719
vt 0.250977 0.511719
vt 0.266602 0.510742
vt 0.266602 0.511719
s 1
usemtl Base
f 439/626/248 440/627/248 438/628/248 437/629/248
f 444/630/249 439/631/249 437/632/249 442/633/249
f 443/634/250 444/630/250 442/633/250 441/635/250
f 442/636/251 437/637/251 438/628/251 441/635/251
f 443/638/252 440/635/252 439/636/252 444/639/252
o port_side.003
v 1.750000 0.750000 -3.000000
v 1.750000 0.250000 -3.000000
v 1.250000 0.750000 -3.000000
v 1.250000 0.250000 -3.000000
vn -0.0000 -0.0000 -1.0000
vt 0.429688 0.504883
vt 0.437500 0.504883
vt 0.437500 0.512695
vt 0.429688 0.512695
s 1
usemtl Base
f 446/640/253 448/641/253 447/642/253 445/643/253
o port_side.004
v -0.250000 0.750000 -3.000000
v -0.250000 0.250000 -3.000000
v -0.750000 0.750000 -3.000000
v -0.750000 0.250000 -3.000000
vn -0.0000 -0.0000 -1.0000
vt 0.429688 0.504883
vt 0.437500 0.504883
vt 0.437500 0.512695
vt 0.429688 0.512695
s 1
usemtl Base
f 450/644/254 452/645/254 451/646/254 449/647/254
o port_side.005
v 4.001250 0.750000 -0.750000
v 4.001250 0.250000 -0.750000
v 4.001250 0.750000 -0.250000
v 4.001250 0.250000 -0.250000
vn 1.0000 -0.0000 -0.0000
vt 0.429688 0.504883
vt 0.437500 0.504883
vt 0.437500 0.512695
vt 0.429688 0.512695
s 1
usemtl Base
f 456/648/255 454/649/255 453/650/255 455/651/255
o port_side.006
v 1.250000 0.750000 3.937500
v 1.250000 0.750000 4.000000
v 1.250000 0.250000 3.937500
v 1.250000 0.250000 4.000000
v 1.750000 0.750000 4.000000
v 1.750000 0.750000 3.937500
v 1.750000 0.250000 4.000000
v 1.750000 0.250000 3.937500
vn -0.0000 -0.0000 1.0000
vn -1.0000 -0.0000 -0.0000
vn 1.0000 -0.0000 -0.0000
vn -0.0000 1.0000 -0.0000
vn -0.0000 -1.0000 -0.0000
vt 0.250977 0.502930
vt 0.258789 0.502930
vt 0.258789 0.510742
vt 0.250977 0.510742
vt 0.250000 0.502930
vt 0.250000 0.510742
vt 0.259766 0.502930
vt 0.259766 0.510742
vt 0.258789 0.511719
vt 0.250977 0.511719
vt 0.266602 0.510742
vt 0.266602 0.511719
s 1
usemtl Base
f 460/652/256 463/653/256 461/654/256 458/655/256
f 459/656/257 460/652/257 458/655/257 457/657/257
f 463/653/258 464/658/258 462/659/258 461/654/258
f 462/660/259 457/661/259 458/655/259 461/654/259
f 463/662/260 460/654/260 459/660/260 464/663/260
o port_side.007
v -0.750000 0.750000 3.937500
v -0.750000 0.750000 4.000000
v -0.750000 0.250000 3.937500
v -0.750000 0.250000 4.000000
v -0.250000 0.750000 4.000000
v -0.250000 0.750000 3.937500
v -0.250000 0.250000 4.000000
v -0.250000 0.250000 3.937500
vn -0.0000 -0.0000 1.0000
vn -1.0000 -0.0000 -0.0000
vn 1.0000 -0.0000 -0.0000
vn -0.0000 1.0000 -0.0000
vn -0.0000 -1.0000 -0.0000
vt 0.250977 0.502930
vt 0.258789 0.502930
vt 0.258789 0.510742
vt 0.250977 0.510742
vt 0.250000 0.502930
vt 0.250000 0.510742
vt 0.259766 0.502930
vt 0.259766 0.510742
vt 0.258789 0.511719
vt 0.250977 0.511719
vt 0.266602 0.510742
vt 0.266602 0.511719
s 1
usemtl Base
f 468/664/261 471/665/261 469/666/261 466/667/261
f 467/668/262 468/664/262 466/667/262 465/669/262
f 471/665/263 472/670/263 470/671/263 469/666/263
f 470/672/264 465/673/264 466/667/264 469/666/264
f 471/674/265 468/666/265 467/672/265 472/675/265
o port_side.008
v -3.000000 0.750000 1.750000
v -2.937500 0.750000 1.750000
v -3.000000 0.250000 1.750000
v -2.937500 0.250000 1.750000
v -2.937500 0.750000 1.250000
v -3.000000 0.750000 1.250000
v -2.937500 0.250000 1.250000
v -3.000000 0.250000 1.250000
vn -0.0000 -0.0000 1.0000
vn -1.0000 -0.0000 -0.0000
vn -0.0000 -0.0000 -1.0000
vn -0.0000 1.0000 -0.0000
vn -0.0000 -1.0000 -0.0000
vt 0.250000 0.502930
vt 0.250977 0.502930
vt 0.250977 0.510742
vt 0.250000 0.510742
vt 0.259766 0.502930
vt 0.267578 0.502930
vt 0.267578 0.510742
vt 0.259766 0.510742
vt 0.258789 0.502930
vt 0.258789 0.510742
vt 0.258789 0.511719
vt 0.250977 0.511719
vt 0.266602 0.510742
vt 0.266602 0.511719
s 1
usemtl Base
f 475/676/266 476/677/266 474/678/266 473/679/266
f 480/680/267 475/681/267 473/682/267 478/683/267
f 479/684/268 480/680/268 478/683/268 477/685/268
f 478/686/269 473/687/269 474/678/269 477/685/269
f 479/688/270 476/685/270 475/686/270 480/689/270
o port_side.009
v 4.000000 0.750000 1.250000
v 3.937500 0.750000 1.250000
v 4.000000 0.250000 1.250000
v 3.937500 0.250000 1.250000
v 3.937500 0.750000 1.750000
v 4.000000 0.750000 1.750000
v 3.937500 0.250000 1.750000
v 4.000000 0.250000 1.750000
vn -0.0000 -0.0000 -1.0000
vn 1.0000 -0.0000 -0.0000
vn -0.0000 -0.0000 1.0000
vn -0.0000 1.0000 -0.0000
vn -0.0000 -1.0000 -0.0000
vt 0.250000 0.502930
vt 0.250977 0.502930
vt 0.250977 0.510742
vt 0.250000 0.510742
vt 0.259766 0.502930
vt 0.267578 0.502930
vt 0.267578 0.510742
vt 0.259766 0.510742
vt 0.258789 0.502930
vt 0.258789 0.510742
vt 0.258789 0.511719
vt 0.250977 0.511719
vt 0.266602 0.510742
vt 0.266602 0.511719
s 1
usemtl Base
f 483/690/271 484/691/271 482/692/271 481/693/271
f 488/694/272 483/695/272 481/696/272 486/697/272
f 487/698/273 488/694/273 486/697/273 485/699/273
f 486/700/274 481/701/274 482/692/274 485/699/274
f 487/702/275 484/699/275 483/700/275 488/703/275
o port_side.010
v 4.000000 0.750000 -0.750000
v 3.937500 0.750000 -0.750000
v 4.000000 0.250000 -0.750000
v 3.937500 0.250000 -0.750000
v 3.937500 0.750000 -0.250000
v 4.000000 0.750000 -0.250000
v 3.937500 0.250000 -0.250000
v 4.000000 0.250000 -0.250000
vn -0.0000 -0.0000 -1.0000
vn 1.0000 -0.0000 -0.0000
vn -0.0000 -0.0000 1.0000
vn -0.0000 1.0000 -0.0000
vn -0.0000 -1.0000 -0.0000
vt 0.250000 0.502930
vt 0.250977 0.502930
vt 0.250977 0.510742
vt 0.250000 0.510742
vt 0.259766 0.502930
vt 0.267578 0.502930
vt 0.267578 0.510742
vt 0.259766 0.510742
vt 0.258789 0.502930
vt 0.258789 0.510742
vt 0.258789 0.511719
vt 0.250977 0.511719
vt 0.266602 0.510742
vt 0.266602 0.511719
s 1
usemtl Base
f 491/704/276 492/705/276 490/706/276 489/707/276
f 496/708/277 491/709/277 489/710/277 494/711/277
f 495/712/278 496/708/278 494/711/278 493/713/278
f 494/714/279 489/715/279 490/706/279 493/713/279
f 495/716/280 492/713/280 491/714/280 496/717/280
o port_side.011
v -0.750000 0.750000 4.000000
v -0.750000 0.250000 4.000000
v -0.250000 0.750000 4.000000
v -0.250000 0.250000 4.000000
vn -0.0000 -0.0000 1.0000
vt 0.429688 0.504883
vt 0.437500 0.504883
vt 0.437500 0.512695
vt 0.429688 0.512695
s 1
usemtl Base
f 498/718/281 500/719/281 499/720/281 497/721/281
o port_side.012
v -0.250000 0.750000 -2.937500
v -0.250000 0.750000 -3.000000
v -0.250000 0.250000 -2.937500
v -0.250000 0.250000 -3.000000
v -0.750000 0.750000 -3.000000
v -0.750000 0.750000 -2.937500
v -0.750000 0.250000 -3.000000
v -0.750000 0.250000 -2.937500
vn -0.0000 -0.0000 -1.0000
vn 1.0000 -0.0000 -0.0000
vn -1.0000 -0.0000 -0.0000
vn -0.0000 1.0000 -0.0000
vn -0.0000 -1.0000 -0.0000
vt 0.250977 0.502930
vt 0.258789 0.502930
vt 0.258789 0.510742
vt 0.250977 0.510742
vt 0.250000 0.502930
vt 0.250000 0.510742
vt 0.259766 0.502930
vt 0.259766 0.510742
vt 0.258789 0.511719
vt 0.250977 0.511719
vt 0.266602 0.510742
vt 0.266602 0.511719
s 1
usemtl Base
f 504/722/282 507/723/282 505/724/282 502/725/282
f 503/726/283 504/722/283 502/725/283 501/727/283
f 507/723/284 508/728/284 506/729/284 505/724/284
f 506/730/285 501/731/285 502/725/285 505/724/285
f 507/732/286 504/724/286 503/730/286 508/733/286
o port_side.013
v 1.750000 0.750000 -2.937500
v 1.750000 0.750000 -3.000000
v 1.750000 0.250000 -2.937500
v 1.750000 0.250000 -3.000000
v 1.250000 0.750000 -3.000000
v 1.250000 0.750000 -2.937500
v 1.250000 0.250000 -3.000000
v 1.250000 0.250000 -2.937500
vn -0.0000 -0.0000 -1.0000
vn 1.0000 -0.0000 -0.0000
vn -1.0000 -0.0000 -0.0000
vn -0.0000 1.0000 -0.0000
vn -0.0000 -1.0000 -0.0000
vt 0.250977 0.502930
vt 0.258789 0.502930
vt 0.258789 0.510742
vt 0.250977 0.510742
vt 0.250000 0.502930
vt 0.250000 0.510742
vt 0.259766 0.502930
vt 0.259766 0.510742
vt 0.258789 0.511719
vt 0.250977 0.511719
vt 0.266602 0.510742
vt 0.266602 0.511719
s 1
usemtl Base
f 512/734/287 515/735/287 513/736/287 510/737/287
f 511/738/288 512/734/288 510/737/288 509/739/288
f 515/735/289 516/740/289 514/741/289 513/736/289
f 514/742/290 509/743/290 510/737/290 513/736/290
f 515/744/291 512/736/291 511/742/291 516/745/291
o port_side.014
v 1.250000 0.750000 4.000000
v 1.250000 0.250000 4.000000
v 1.750000 0.750000 4.000000
v 1.750000 0.250000 4.000000
vn -0.0000 -0.0000 1.0000
vt 0.429688 0.504883
vt 0.437500 0.504883
vt 0.437500 0.512695
vt 0.429688 0.512695
s 1
usemtl Base
f 518/746/292 520/747/292 519/748/292 517/749/292
o port_side.015
v -3.001250 0.750000 1.750000
v -3.001250 0.250000 1.750000
v -3.001250 0.750000 1.250000
v -3.001250 0.250000 1.250000
vn -1.0000 -0.0000 -0.0000
vt 0.429688 0.504883
vt 0.437500 0.504883
vt 0.437500 0.512695
vt 0.429688 0.512695
s 1
usemtl Base
f 524/750/293 522/751/293 521/752/293 523/753/293
o screen1
v 1.739020 1.687500 3.839866
v 1.739020 1.187500 3.839867
v 1.046111 1.687500 3.552854
v 1.046111 1.187500 3.552854
vn -0.3827 -0.0000 0.9239
vt 0.000000 0.500000
vt 0.750000 0.500000
vt 0.750000 1.000000
vt 0.000000 1.000000
s 1
usemtl Screen_hello
f 528/754/294 526/755/294 525/756/294 527/757/294
o screen1.001
v 1.796763 1.750000 3.863784
v 1.844598 1.750000 3.748299
v 1.796763 1.125000 3.863784
v 1.844598 1.125000 3.748299
v 1.036204 1.750000 3.413451
v 0.988368 1.750000 3.528936
v 1.036204 1.125000 3.413451
v 0.988368 1.125000 3.528936
vn 0.3827 -0.0000 -0.9239
vn 0.9239 -0.0000 0.3827
vn -0.3827 -0.0000 0.9239
vn -0.9239 -0.0000 -0.3827
vn -0.0000 1.0000 -0.0000
vn -0.0000 -1.0000 -0.0000
vt 0.447266 0.515625
vt 0.460938 0.515625
vt 0.460938 0.525391
vt 0.447266 0.525391
vt 0.445312 0.515625
vt 0.445312 0.525391
vt 0.462891 0.515625
vt 0.476562 0.515625
vt 0.476562 0.525391
vt 0.462891 0.525391
vt 0.460938 0.527344
vt 0.447266 0.527344
vt 0.474609 0.525391
vt 0.474609 0.527344
s 1
usemtl Base
f 532/758/295 535/759/295 533/760/295 530/761/295
f 531/762/296 532/758/296 530/761/296 529/763/296
f 536/764/297 531/765/297 529/766/297 534/767/297
f 535/759/298 536/764/298 534/767/298 533/760/298
f 534/768/299 529/769/299 530/761/299 533/760/299
f 535/770/300 532/760/300 531/768/300 536/771/300
o screen2
v 0.875000 1.687500 3.531250
v 0.875000 1.187500 3.531250
v 0.125000 1.687500 3.531250
v 0.125000 1.187500 3.531250
vn -0.0000 -0.0000 1.0000
vt 0.000000 0.500000
vt 0.750000 0.500000
vt 0.750000 1.000000
vt 0.000000 1.000000
s 1
usemtl Screen_logo
f 540/772/301 538/773/301 537/774/301 539/775/301
o screen2.001
v 0.937500 1.750000 3.531250
v 0.937500 1.750000 3.406250
v 0.937500 1.125000 3.531250
v 0.937500 1.125000 3.406250
v 0.062500 1.750000 3.406250
v 0.062500 1.750000 3.531250
v 0.062500 1.125000 3.406250
v 0.062500 1.125000 3.531250
vn -0.0000 -0.0000 -1.0000
vn 1.0000 -0.0000 -0.0000
vn -0.0000 -0.0000 1.0000
vn -1.0000 -0.0000 -0.0000
vn -0.0000 1.0000 -0.0000
vn -0.0000 -1.0000 -0.0000
vt 0.447266 0.515625
vt 0.460938 0.515625
vt 0.460938 0.525391
vt 0.447266 0.525391
vt 0.445312 0.515625
vt 0.445312 0.525391
vt 0.462891 0.515625
vt 0.476562 0.515625
vt 0.476562 0.525391
vt 0.462891 0.525391
vt 0.460938 0.527344
vt 0.447266 0.527344
vt 0.474609 0.525391
vt 0.474609 0.527344
s 1
usemtl Base
f 544/776/302 547/777/302 545/778/302 542/779/302
f 543/780/303 544/776/303 542/779/303 541/781/303
f 548/782/304 543/783/304 541/784/304 546/785/304
f 547/777/305 548/782/305 546/785/305 545/778/305
f 546/786/306 541/787/306 542/779/306 545/778/306
f 547/788/307 544/778/307 543/786/307 548/789/307
o screen3
v -0.046111 1.687500 3.552854
v -0.046111 1.187500 3.552854
v -0.739020 1.687500 3.839866
v -0.739020 1.187500 3.839867
vn 0.3827 -0.0000 0.9239
vt 0.000000 0.500000
vt 0.750000 0.500000
vt 0.750000 1.000000
vt 0.000000 1.000000
s 1
usemtl Screen_cmd
f 552/790/308 550/791/308 549/792/308 551/793/308
o screen3.001
v 0.011632 1.750000 3.528936
v -0.036204 1.750000 3.413451
v 0.011632 1.125000 3.528936
v -0.036204 1.125000 3.413451
v -0.844598 1.750000 3.748299
v -0.796763 1.750000 3.863784
v -0.844598 1.125000 3.748299
v -0.796763 1.125000 3.863784
vn -0.3827 -0.0000 -0.9239
vn 0.9239 -0.0000 -0.3827
vn 0.3827 -0.0000 0.9239
vn -0.9239 -0.0000 0.3827
vn -0.0000 1.0000 -0.0000
vn -0.0000 -1.0000 -0.0000
vt 0.447266 0.515625
vt 0.460938 0.515625
vt 0.460938 0.525391
vt 0.447266 0.525391
vt 0.445312 0.515625
vt 0.445312 0.525391
vt 0.462891 0.515625
vt 0.476562 0.515625
vt 0.476562 0.525391
vt 0.462891 0.525391
vt 0.460938 0.527344
vt 0.447266 0.527344
vt 0.474609 0.525391
vt 0.474609 0.527344
s 1
usemtl Base
f 556/794/309 559/795/309 557/796/309 554/797/309
f 555/798/310 556/794/310 554/797/310 553/799/310
f 560/800/311 555/801/311 553/802/311 558/803/311
f 559/795/312 560/800/312 558/803/312 557/796/312
f 558/804/313 553/805/313 554/797/313 557/796/313
f 559/806/314 556/796/314 555/804/314 560/807/314
o screen_connector
v 1.642499 1.562500 3.664587
v 1.666417 1.562500 3.606845
v 1.642499 1.312500 3.664587
v 1.666417 1.312500 3.606845
v 1.031250 1.562500 3.343750
v 1.007332 1.562500 3.401492
v 1.031250 1.312500 3.343750
v 1.007332 1.312500 3.401492
vn 0.3827 -0.0000 -0.9239
vn 0.9239 -0.0000 0.3827
vn -0.3827 -0.0000 0.9239
vn -0.9239 -0.0000 -0.3827
vn -0.0000 1.0000 -0.0000
vn -0.0000 -1.0000 -0.0000
vt 0.415039 0.585938
vt 0.425781 0.585938
vt 0.425781 0.589844
vt 0.415039 0.589844
vt 0.414062 0.585938
vt 0.414062 0.589844
vt 0.426758 0.585938
vt 0.437500 0.585938
vt 0.437500 0.589844
vt 0.426758 0.589844
vt 0.425781 0.590820
vt 0.415039 0.590820
vt 0.436523 0.589844
vt 0.436523 0.590820
s 1
usemtl Base
f 564/808/315 567/809/315 565/810/315 562/811/315
f 563/812/316 564/808/316 562/811/316 561/813/316
f 568/814/317 563/815/317 561/816/317 566/817/317
f 567/809/318 568/814/318 566/817/318 565/810/318
f 566/818/319 561/819/319 562/811/319 565/810/319
f 567/820/320 564/810/320 563/818/320 568/821/320
o screen_connector.001
v 0.656250 1.312500 3.406250
v 0.656250 1.312500 3.343750
v 0.656250 1.000000 3.406250
v 0.656250 1.000000 3.343750
v 0.343750 1.312500 3.343750
v 0.343750 1.312500 3.406250
v 0.343750 1.000000 3.343750
v 0.343750 1.000000 3.406250
vn -0.0000 -0.0000 -1.0000
vn 1.0000 -0.0000 -0.0000
vn -0.0000 -0.0000 1.0000
vn -1.0000 -0.0000 -0.0000
vt 0.463867 0.666992
vt 0.468750 0.666992
vt 0.468750 0.671875
vt 0.463867 0.671875
vt 0.462891 0.666992
vt 0.462891 0.671875
vt 0.469727 0.666992
vt 0.474609 0.666992
vt 0.474609 0.671875
vt 0.469727 0.671875
s 1
usemtl Base
f 572/822/321 575/823/321 573/824/321 570/825/321
f 571/826/322 572/822/322 570/825/322 569/827/322
f 576/828/323 571/829/323 569/830/323 574/831/323
f 575/823/324 576/828/324 574/831/324 573/824/324
o screen_connector.002
v -0.007332 1.562500 3.401492
v -0.031250 1.562500 3.343750
v -0.007332 1.312500 3.401492
v -0.031250 1.312500 3.343750
v -0.724160 1.562500 3.630763
v -0.700242 1.562500 3.688505
v -0.724160 1.312500 3.630763
v -0.700242 1.312500 3.688505
vn -0.3827 -0.0000 -0.9239
vn 0.9239 -0.0000 -0.3827
vn 0.3827 -0.0000 0.9239
vn -0.9239 -0.0000 0.3827
vn -0.0000 1.0000 -0.0000
vn -0.0000 -1.0000 -0.0000
vt 0.438477 0.667969
vt 0.450195 0.667969
vt 0.450195 0.671875
vt 0.438477 0.671875
vt 0.437500 0.667969
vt 0.437500 0.671875
vt 0.451172 0.667969
vt 0.462891 0.667969
vt 0.462891 0.671875
vt 0.451172 0.671875
vt 0.450195 0.672852
vt 0.438477 0.672852
vt 0.461914 0.671875
vt 0.461914 0.672852
s 1
usemtl Base
f 580/832/325 583/833/325 581/834/325 578/835/325
f 579/836/326 580/832/326 578/835/326 577/837/326
f 584/838/327 579/839/327 577/840/327 582/841/327
f 583/833/328 584/838/328 582/841/328 581/834/328
f 582/842/329 577/843/329 578/835/329 581/834/329
f 583/844/330 580/834/330 579/842/330 584/845/330
o screen_connector.003
v 1.031250 1.562500 3.406250
v 1.031250 1.562500 3.343750
v 1.031250 1.312500 3.406250
v 1.031250 1.312500 3.343750
v -0.031250 1.562500 3.343750
v -0.031250 1.562500 3.406250
v -0.031250 1.312500 3.343750
v -0.031250 1.312500 3.406250
vn -0.0000 -0.0000 -1.0000
vn 1.0000 -0.0000 -0.0000
vn -0.0000 -0.0000 1.0000
vn -1.0000 -0.0000 -0.0000
vn -0.0000 1.0000 -0.0000
vn -0.0000 -1.0000 -0.0000
vt 0.395508 0.760742
vt 0.412109 0.760742
vt 0.412109 0.764648
vt 0.395508 0.764648
vt 0.394531 0.760742
vt 0.394531 0.764648
vt 0.413086 0.760742
vt 0.429688 0.760742
vt 0.429688 0.764648
vt 0.413086 0.764648
vt 0.412109 0.765625
vt 0.395508 0.765625
vt 0.428711 0.764648
vt 0.428711 0.765625
s 1
usemtl Base
f 588/846/331 591/847/331 589/848/331 586/849/331
f 587/850/332 588/846/332 586/849/332 585/851/332
f 592/852/333 587/853/333 585/854/333 590/855/333
f 591/847/334 592/852/334 590/855/334 589/848/334
f 590/856/335 585/857/335 586/849/335 589/848/335
f 591/858/336 588/848/336 587/856/336 592/859/336
o top_back1
v 2.000000 35.448837 4.316147
v 2.000000 35.361683 3.319952
v 2.000000 31.962156 4.621192
v 2.000000 31.875000 3.624998
v -1.000000 35.361683 3.319952
v -1.000000 35.448837 4.316147
v -1.000000 31.875000 3.624998
v -1.000000 31.962156 4.621192
vn 1.0000 -0.0000 -0.0000
vn -0.0000 0.0872 0.9962
vn -1.0000 -0.0000 -0.0000
vn -0.0000 0.9962 -0.0872
vn -0.0000 -0.9962 0.0872
vt 0.394531 0.828125
vt 0.410156 0.828125
vt 0.410156 0.882812
vt 0.394531 0.882812
vt 0.472656 0.828125
vt 0.519531 0.828125
vt 0.519531 0.882812
vt 0.472656 0.882812
vt 0.457031 0.828125
vt 0.457031 0.882812
vt 0.457031 0.898438
vt 0.410156 0.898438
vt 0.503906 0.882812
vt 0.503906 0.898438
s 1
usemtl Base
f 595/860/337 596/861/337 594/862/337 593/863/337
f 600/864/338 595/865/338 593/866/338 598/867/338
f 599/868/339 600/864/339 598/867/339 597/869/339
f 598/870/340 593/871/340 594/862/340 597/869/340
f 599/872/341 596/869/341 595/870/341 600/873/341
o top_back2
v 1.500000 34.822575 4.923728
v 1.500000 34.563755 3.957803
v 1.500000 32.407761 5.570776
v 1.500000 32.148941 4.604851
v -0.500000 34.563755 3.957803
v -0.500000 34.822575 4.923728
v -0.500000 32.148941 4.604851
v -0.500000 32.407761 5.570776
vn 1.0000 -0.0000 -0.0000
vn -0.0000 0.2588 0.9659
vn -1.0000 -0.0000 -0.0000
vn -0.0000 0.9659 -0.2588
vn -0.0000 -0.9659 0.2588
vt 0.216797 0.531250
vt 0.232422 0.531250
vt 0.232422 0.570312
vt 0.216797 0.570312
vt 0.279297 0.531250
vt 0.310547 0.531250
vt 0.310547 0.570312
vt 0.279297 0.570312
vt 0.263672 0.531250
vt 0.263672 0.570312
vt 0.263672 0.585938
vt 0.232422 0.585938
vt 0.294922 0.570312
vt 0.294922 0.585938
s 1
usemtl Base
f 603/874/342 604/875/342 602/876/342 601/877/342
f 608/878/343 603/879/343 601/880/343 606/881/343
f 607/882/344 608/878/344 606/881/344 605/883/344
f 606/884/345 601/885/345 602/876/345 605/883/345
f 607/886/346 604/883/346 603/884/346 608/887/346
o top_body
v 2.312500 35.750000 3.624997
v 2.312500 35.750000 -1.375003
v 2.312500 31.875000 3.624998
v 2.312500 31.875000 -1.375002
v -1.312500 35.750000 -1.375003
v -1.312500 35.750000 3.624997
v -1.312500 31.875000 -1.375002
v -1.312500 31.875000 3.624998
vn -0.0000 -0.0000 -1.0000
vn 1.0000 -0.0000 -0.0000
vn -0.0000 -0.0000 1.0000
vn -1.0000 -0.0000 -0.0000
vn -0.0000 1.0000 -0.0000
vn -0.0000 -1.0000 -0.0000
vt 0.203125 0.759766
vt 0.259766 0.759766
vt 0.259766 0.820312
vt 0.203125 0.820312
vt 0.125000 0.759766
vt 0.125000 0.820312
vt 0.337891 0.759766
vt 0.394531 0.759766
vt 0.394531 0.820312
vt 0.337891 0.820312
vt 0.259766 0.898438
vt 0.203125 0.898438
vt 0.316406 0.820312
vt 0.316406 0.898438
s 1
usemtl Base
f 612/888/347 615/889/347 613/890/347 610/891/347
f 611/892/348 612/888/348 610/891/348 609/893/348
f 616/894/349 611/895/349 609/896/349 614/897/349
f 615/889/350 616/894/350 614/897/350 613/890/350
f 614/898/351 609/899/351 610/891/351 613/890/351
f 615/900/352 612/890/352 611/898/352 616/901/352
o top_bottom_connector
v 0.687500 32.860512 3.893710
v 0.687500 31.712461 1.122072
v 0.687500 31.936632 4.276394
v 0.687500 30.788582 1.504755
v 0.312500 31.712461 1.122072
v 0.312500 32.860512 3.893710
v 0.312500 30.788582 1.504755
v 0.312500 31.936632 4.276394
vn 1.0000 -0.0000 -0.0000
vn -1.0000 -0.0000 -0.0000
vn -0.0000 -0.9239 0.3827
vt 0.394531 0.765625
vt 0.441406 0.765625
vt 0.441406 0.781250
vt 0.394531 0.781250
vt 0.447266 0.765625
vt 0.494141 0.765625
vt 0.494141 0.781250
vt 0.447266 0.781250
vt 0.453125 0.781250
vt 0.447266 0.828125
vt 0.453125 0.828125
s 1
usemtl Base
f 619/902/353 620/903/353 618/904/353 617/905/353
f 623/906/354 624/907/354 622/908/354 621/909/354
f 623/910/355 620/909/355 619/911/355 624/912/355
o top_side_door
v 2.375000 34.875000 1.062497
v 2.375000 34.875000 -0.937503
v 2.375000 32.875000 1.062497
v 2.375000 32.875000 -0.937503
v 2.312500 34.875000 -0.937503
v 2.312500 34.875000 1.062497
v 2.312500 32.875000 -0.937503
v 2.312500 32.875000 1.062497
vn -0.0000 -0.0000 -1.0000
vn 1.0000 -0.0000 -0.0000
vn -0.0000 -0.0000 1.0000
vn -0.0000 1.0000 -0.0000
vn -0.0000 -1.0000 -0.0000
vt 0.342773 0.504883
vt 0.341797 0.504883
vt 0.341797 0.536133
vt 0.342773 0.536133
vt 0.374023 0.504883
vt 0.374023 0.536133
vt 0.375000 0.504883
vt 0.375000 0.536133
vt 0.341797 0.567383
vt 0.342773 0.567383
vt 0.343750 0.536133
vt 0.343750 0.567383
s 1
usemtl Base
f 628/913/356 631/914/356 629/915/356 626/916/356
f 627/917/357 628/913/357 626/916/357 625/918/357
f 632/919/358 627/917/358 625/918/358 630/920/358
f 630/921/359 625/922/359 626/916/359 629/915/359
f 631/916/360 628/923/360 627/924/360 632/922/360
o top_side_door.001
v -1.312500 34.875000 1.062497
v -1.312500 34.875000 -0.937503
v -1.312500 32.875000 1.062497
v -1.312500 32.875000 -0.937503
v -1.375000 34.875000 -0.937503
v -1.375000 34.875000 1.062497
v -1.375000 32.875000 -0.937503
v -1.375000 32.875000 1.062497
vn -0.0000 -0.0000 -1.0000
vn -0.0000 -0.0000 1.0000
vn -1.0000 -0.0000 -0.0000
vn -0.0000 1.0000 -0.0000
vn -0.0000 -1.0000 -0.0000
vt 0.341797 0.504883
vt 0.342773 0.504883
vt 0.342773 0.536133
vt 0.341797 0.536133
vt 0.374023 0.504883
vt 0.375000 0.504883
vt 0.375000 0.536133
vt 0.374023 0.536133
vt 0.342773 0.567383
vt 0.341797 0.567383
vt 0.343750 0.536133
vt 0.343750 0.567383
s 1
usemtl Base
f 636/925/361 639/926/361 637/927/361 634/928/361
f 640/929/362 635/930/362 633/931/362 638/932/362
f 639/926/363 640/929/363 638/932/363 637/927/363
f 638/933/364 633/934/364 634/928/364 637/927/364
f 639/935/365 636/927/365 635/933/365 640/936/365
o top_top
v 1.500000 36.050705 -0.046286
v 1.500000 35.750000 -1.000003
v 1.500000 35.693062 0.066479
v 1.500000 35.392357 -0.887238
v -0.500000 35.750000 -1.000003
v -0.500000 36.050705 -0.046286
v -0.500000 35.392357 -0.887238
v -0.500000 35.693062 0.066479
vn 1.0000 -0.0000 -0.0000
vn -0.0000 0.3007 0.9537
vn -1.0000 -0.0000 -0.0000
vn -0.0000 0.9537 -0.3007
vt 0.375000 0.545898
vt 0.390625 0.545898
vt 0.390625 0.551758
vt 0.375000 0.551758
vt 0.437500 0.545898
vt 0.468750 0.545898
vt 0.468750 0.551758
vt 0.437500 0.551758
vt 0.421875 0.545898
vt 0.421875 0.551758
vt 0.421875 0.567383
vt 0.390625 0.567383
s 1
usemtl Base
f 643/937/366 644/938/366 642/939/366 641/940/366
f 648/941/367 643/942/367 641/943/367 646/944/367
f 647/945/368 648/941/368 646/944/368 645/946/368
f 646/947/369 641/948/369 642/939/369 645/946/369
o top_top.001
v 1.500000 36.050705 1.203714
v 1.500000 35.750000 0.249997
v 1.500000 35.693062 1.316479
v 1.500000 35.392357 0.362762
v -0.500000 35.750000 0.249997
v -0.500000 36.050705 1.203714
v -0.500000 35.392357 0.362762
v -0.500000 35.693062 1.316479
vn 1.0000 -0.0000 -0.0000
vn -0.0000 0.3007 0.9537
vn -1.0000 -0.0000 -0.0000
vn -0.0000 0.9537 -0.3007
vt 0.375000 0.545898
vt 0.390625 0.545898
vt 0.390625 0.551758
vt 0.375000 0.551758
vt 0.437500 0.545898
vt 0.468750 0.545898
vt 0.468750 0.551758
vt 0.437500 0.551758
vt 0.421875 0.545898
vt 0.421875 0.551758
vt 0.421875 0.567383
vt 0.390625 0.567383
s 1
usemtl Base
f 651/949/370 652/950/370 650/951/370 649/952/370
f 656/953/371 651/954/371 649/955/371 654/956/371
f 655/957/372 656/953/372 654/956/372 653/958/372
f 654/959/373 649/960/373 650/951/373 653/958/373
