# Made in Blockbench 5.0.7
mtllib large_wind_generator.mtl

o back
v 1 0 3.5
v 0 0 3.5
v 0 0.8125 3.5
v 1 0.8125 3.5
v 1 0 3.875
v 1 0.8125 3.875
v 0 0 3.875
v 0 0.8125 3.875
vt 0.451172 0.527344
vt 0.466797 0.527344
vt 0.466797 0.540039
vt 0.451172 0.540039
vt 0.445312 0.527344
vt 0.451172 0.527344
vt 0.451172 0.540039
vt 0.445312 0.540039
vt 0.472656 0.527344
vt 0.488281 0.527344
vt 0.488281 0.540039
vt 0.472656 0.540039
vt 0.466797 0.527344
vt 0.472656 0.527344
vt 0.472656 0.540039
vt 0.466797 0.540039
vt 0.466797 0.545898
vt 0.451172 0.545898
vt 0.451172 0.540039
vt 0.466797 0.540039
vt 0.482422 0.540039
vt 0.466797 0.540039
vt 0.466797 0.545898
vt 0.482422 0.545898
vn 0 0 -1
vn 1 0 0
vn 0 0 1
vn -1 0 0
vn 0 1 0
vn 0 -1 0
usemtl Base
f 1/1/1 2/2/1 3/3/1 4/4/1
f 5/5/2 1/6/2 4/7/2 6/8/2
f 7/9/3 5/10/3 6/11/3 8/12/3
f 2/13/4 7/14/4 8/15/4 3/16/4
f 8/17/5 6/18/5 4/19/5 3/20/5
f 2/21/6 1/22/6 5/23/6 7/24/6
v 2 0.5 2.8125
v -1 0.5 2.8125
v -1 2 2.8125
v 2 2 2.8125
v 2 0.5 3.25
v 2 2 3.25
v -1 0.5 3.25
v -1 2 3.25
vt 0.420898 0.635742
vt 0.467773 0.635742
vt 0.467773 0.65918
vt 0.420898 0.65918
vt 0.414062 0.635742
vt 0.420898 0.635742
vt 0.420898 0.65918
vt 0.414062 0.65918
vt 0.474609 0.635742
vt 0.521484 0.635742
vt 0.521484 0.65918
vt 0.474609 0.65918
vt 0.467773 0.635742
vt 0.474609 0.635742
vt 0.474609 0.65918
vt 0.467773 0.65918
vt 0.467773 0.666016
vt 0.420898 0.666016
vt 0.420898 0.65918
vt 0.467773 0.65918
vt 0.514648 0.65918
vt 0.467773 0.65918
vt 0.467773 0.666016
vt 0.514648 0.666016
vn 0 0 -1
vn 1 0 0
vn 0 0 1
vn -1 0 0
vn 0 1 0
vn 0 -1 0
o back_connector_side
v 2 0 3.5
v 1 0 3.5
v 1 1 3.5
v 2 1 3.5
v 2 0 3.9375
v 2 1 3.9375
v 1 0 3.9375
v 1 1 3.9375
vt 0.444336 0.568359
vt 0.459961 0.568359
vt 0.459961 0.583984
vt 0.444336 0.583984
vt 0.4375 0.568359
vt 0.444336 0.568359
vt 0.444336 0.583984
vt 0.4375 0.583984
vt 0.466797 0.568359
vt 0.482422 0.568359
vt 0.482422 0.583984
vt 0.466797 0.583984
vt 0.459961 0.568359
vt 0.466797 0.568359
vt 0.466797 0.583984
vt 0.459961 0.583984
vt 0.459961 0.59082
vt 0.444336 0.59082
vt 0.444336 0.583984
vt 0.459961 0.583984
vt 0.475586 0.583984
vt 0.459961 0.583984
vt 0.459961 0.59082
vt 0.475586 0.59082
vn 0 0 -1
vn 1 0 0
vn 0 0 1
vn -1 0 0
vn 0 1 0
vn 0 -1 0
usemtl Base
f 17/49/13 18/50/13 19/51/13 20/52/13
f 21/53/14 17/54/14 20/55/14 22/56/14
f 23/57/15 21/58/15 22/59/15 24/60/15
f 18/61/16 23/62/16 24/63/16 19/64/16
f 24/65/17 22/66/17 20/67/17 19/68/17
f 18/69/18 17/70/18 21/71/18 23/72/18
o back_connector_side.001
v 0 0 3.5
v -1 0 3.5
v -1 1 3.5
v 0 1 3.5
v 0 0 3.9375
v 0 1 3.9375
v -1 0 3.9375
v -1 1 3.9375
vt 0.459961 0.568359
vt 0.444336 0.568359
vt 0.444336 0.583984
vt 0.459961 0.583984
vt 0.466797 0.568359
vt 0.459961 0.568359
vt 0.459961 0.583984
vt 0.466797 0.583984
vt 0.482422 0.568359
vt 0.466797 0.568359
vt 0.466797 0.583984
vt 0.482422 0.583984
vt 0.444336 0.568359
vt 0.4375 0.568359
vt 0.4375 0.583984
vt 0.444336 0.583984
vt 0.444336 0.59082
vt 0.459961 0.59082
vt 0.459961 0.583984
vt 0.444336 0.583984
vt 0.459961 0.583984
vt 0.475586 0.583984
vt 0.475586 0.59082
vt 0.459961 0.59082
vn 0 0 -1
vn 1 0 0
vn 0 0 1
vn -1 0 0
vn 0 1 0
vn 0 -1 0
usemtl Base
f 25/73/19 26/74/19 27/75/19 28/76/19
f 29/77/20 25/78/20 28/79/20 30/80/20
f 31/81/21 29/82/21 30/83/21 32/84/21
f 26/85/22 31/86/22 32/87/22 27/88/22
f 32/89/23 30/90/23 28/91/23 27/92/23
f 26/93/24 25/94/24 29/95/24 31/96/24
v 0.62375 35.393379 3.655893
v 0.37375 35.393379 3.655893
v 0.37375 36.375 4.062494
v 0.62375 36.375 4.062494
v 0.62375 35.24987 4.002348
v 0.62375 36.231495 4.408949
v 0.37375 35.24987 4.002348
v 0.37375 36.231495 4.408949
vt 0.294922 0.508789
vt 0.298828 0.508789
vt 0.298828 0.525391
vt 0.294922 0.525391
vt 0.289062 0.508789
vt 0.294922 0.508789
vt 0.294922 0.525391
vt 0.289062 0.525391
vt 0.298828 0.508789
vt 0.304688 0.508789
vt 0.304688 0.525391
vt 0.298828 0.525391
vt 0.298828 0.53125
vt 0.294922 0.53125
vt 0.294922 0.525391
vt 0.298828 0.525391
vn 0 0.3826836482156856 -0.923879443103013
vn 1 0 0
vn -1 0 0
vn 0 0.9238808144936873 0.38268033737112883
v 0.625 34.625 4.062496
v 0.375 34.625 4.062496
v 0.375 36.375 4.062494
v 0.625 36.375 4.062494
v 0.625 34.625 4.937496
v 0.625 36.375 4.937494
v 0.375 34.625 4.937496
v 0.375 36.375 4.937494
vt 0.388672 0.504883
vt 0.392578 0.504883
vt 0.392578 0.532227
vt 0.388672 0.532227
vt 0.375 0.504883
vt 0.388672 0.504883
vt 0.388672 0.532227
vt 0.375 0.532227
vt 0.40625 0.504883
vt 0.410156 0.504883
vt 0.410156 0.532227
vt 0.40625 0.532227
vt 0.392578 0.504883
vt 0.40625 0.504883
vt 0.40625 0.532227
vt 0.392578 0.532227
vt 0.392578 0.545898
vt 0.388672 0.545898
vt 0.388672 0.532227
vt 0.392578 0.532227
vn 0 -0.0000011428571430161427 -0.999999999999347
vn 1 0 0
vn 0 0.0000011428571430161427 0.999999999999347
vn -1 0 0
vn 0 1 0
v 0.878886 34.03125 -1.562506
v 0.121114 33.59375 -1.562505
v -0.691386 35.001041 -1.562506
v 0.066386 35.438541 -1.562506
v 0.878886 34.03125 -1.375006
v 0.066386 35.438541 -1.375006
v 0.121114 33.59375 -1.375005
v -0.691386 35.001041 -1.375006
vt 0.219727 0.50293
vt 0.233398 0.50293
vt 0.233398 0.52832
vt 0.219727 0.52832
vt 0.216797 0.50293
vt 0.219727 0.50293
vt 0.219727 0.52832
vt 0.216797 0.52832
vt 0.233398 0.50293
vt 0.236328 0.50293
vt 0.236328 0.52832
vt 0.233398 0.52832
vt 0.233398 0.53125
vt 0.219727 0.53125
vt 0.219727 0.52832
vt 0.233398 0.52832
vn -6.820510694484585e-7 -0.0000011043675358143858 -0.9999999999991577
vn 0.8660253605306271 0.5000000749177917 0
vn -0.8660253605306271 -0.5000000749177917 0
vn -0.5000001129848547 0.8660253385525926 0
v 0.739177 31.5625 -0.077429
v -0.646642 31.5625 -0.651454
v -0.646642 31.875 -0.651454
v 0.739177 31.875 -0.077429
v -1.124996 31.5625 0.503395
v 0.260823 31.5625 1.07742
v 0.260823 31.875 1.07742
v -1.124996 31.875 0.503395
vt 0.457031 0.741211
vt 0.480469 0.741211
vt 0.480469 0.746094
vt 0.457031 0.746094
vt 0.5 0.741211
vt 0.523438 0.741211
vt 0.523438 0.746094
vt 0.5 0.746094
vt 0.480469 0.741211
vt 0.5 0.741211
vt 0.5 0.746094
vt 0.480469 0.746094
vt 0.503906 0.746094
vt 0.480469 0.746094
vt 0.480469 0.765625
vt 0.503906 0.765625
vn 0.38268341825623586 0 -0.9238795383553653
vn -0.38268341825623586 0 0.9238795383553653
vn -0.9238795659696113 0 -0.3826833515895389
vn 0 -1 0
v 0.878886 33.59375 -1.562505
v 0.121114 34.03125 -1.562506
v 0.933614 35.438541 -1.562506
v 1.691386 35.001041 -1.562506
v 0.878886 33.59375 -1.375005
v 1.691386 35.001041 -1.375006
v 0.121114 34.03125 -1.375006
v 0.933614 35.438541 -1.375006
vt 0.219727 0.50293
vt 0.233398 0.50293
vt 0.233398 0.52832
vt 0.219727 0.52832
vt 0.216797 0.50293
vt 0.219727 0.50293
vt 0.219727 0.52832
vt 0.216797 0.52832
vt 0.233398 0.50293
vt 0.236328 0.50293
vt 0.236328 0.52832
vt 0.233398 0.52832
vt 0.233398 0.53125
vt 0.219727 0.53125
vt 0.219727 0.52832
vt 0.233398 0.52832
vn 9.897434927477902e-7 -5.714287861270903e-7 -0.999999999999347
vn 0.8660253605306271 -0.5000000749177919 0
vn -0.8660253605306271 0.5000000749177917 0
vn 0.5000001129848547 0.8660253385525926 0
v 0.71875 33.433613 -1.561255
v 0.28125 34.191387 -1.561256
v 1.688541 35.003887 -1.561256
v 2.126041 34.246113 -1.561256
v 0.71875 33.433613 -1.373755
v 2.126041 34.246113 -1.373756
v 0.28125 34.191387 -1.373756
v 1.688541 35.003887 -1.373756
vt 0.219727 0.50293
vt 0.233398 0.50293
vt 0.233398 0.52832
vt 0.219727 0.52832
vt 0.216797 0.50293
vt 0.219727 0.50293
vt 0.219727 0.52832
vt 0.216797 0.52832
vt 0.233398 0.50293
vt 0.236328 0.50293
vt 0.236328 0.52832
vt 0.233398 0.52832
vt 0.233398 0.53125
vt 0.219727 0.53125
vt 0.219727 0.52832
vt 0.233398 0.52832
vn 5.714276549934856e-7 -9.897415335673073e-7 -0.999999999999347
vn 0.5000000749177921 -0.866025360530627 0
vn -0.500000074917792 0.8660253605306271 0
vn 0.8660259099798542 0.4999991232427969 0
v 0.5 33.375 -1.562505
v 0.5 34.25 -1.562506
v 2.125 34.25 -1.562506
v 2.125 33.375 -1.562505
v 0.5 33.375 -1.375005
v 2.125 33.375 -1.375005
v 0.5 34.25 -1.375006
v 2.125 34.25 -1.375006
vt 0.219727 0.50293
vt 0.233398 0.50293
vt 0.233398 0.52832
vt 0.219727 0.52832
vt 0.216797 0.50293
vt 0.219727 0.50293
vt 0.219727 0.52832
vt 0.216797 0.52832
vt 0.233398 0.50293
vt 0.236328 0.50293
vt 0.236328 0.52832
vt 0.233398 0.52832
vt 0.233398 0.53125
vt 0.219727 0.53125
vt 0.219727 0.52832
vt 0.233398 0.52832
vn 0 -0.0000011428571427623776 -0.999999999999347
vn 0 -1 0
vn 0 1 0
vn 1 0 0
v 0.9375 33.8125 -1.561255
v 0.0625 33.8125 -1.561255
v 0.0625 35.4375 -1.561256
v 0.9375 35.4375 -1.561256
v 0.9375 33.8125 -1.373755
v 0.9375 35.4375 -1.373756
v 0.0625 33.8125 -1.373755
v 0.0625 35.4375 -1.373756
vt 0.219727 0.50293
vt 0.233398 0.50293
vt 0.233398 0.52832
vt 0.219727 0.52832
vt 0.216797 0.50293
vt 0.219727 0.50293
vt 0.219727 0.52832
vt 0.216797 0.52832
vt 0.233398 0.50293
vt 0.236328 0.50293
vt 0.236328 0.52832
vt 0.233398 0.52832
vt 0.233398 0.53125
vt 0.219727 0.53125
vt 0.219727 0.52832
vt 0.233398 0.52832
vn 0 -6.153846153338732e-7 -0.9999999999998107
vn 1 0 0
vn -1 0 0
vn 0 1 0
v 0.28125 33.433613 -1.561255
v 0.71875 34.191387 -1.561256
v 2.126041 33.378887 -1.561255
v 1.688541 32.621113 -1.561255
v 0.28125 33.433613 -1.373755
v 1.688541 32.621113 -1.373755
v 0.71875 34.191387 -1.373756
v 2.126041 33.378887 -1.373755
vt 0.219727 0.50293
vt 0.233398 0.50293
vt 0.233398 0.52832
vt 0.219727 0.52832
vt 0.216797 0.50293
vt 0.219727 0.50293
vt 0.219727 0.52832
vt 0.216797 0.52832
vt 0.233398 0.50293
vt 0.236328 0.50293
vt 0.236328 0.52832
vt 0.233398 0.52832
vt 0.233398 0.53125
vt 0.219727 0.53125
vt 0.219727 0.52832
vt 0.233398 0.52832
vn -3.848855365805399e-8 -0.000001297433347794323 -0.9999999999991577
vn -0.500000074917792 -0.8660253605306271 0
vn 0.5000000749177921 0.866025360530627 0
vn 0.8660259099798542 -0.4999991232427969 0
v 0.121114 33.59375 -1.562505
v 0.878886 34.03125 -1.562506
v 1.691386 32.623959 -1.562505
v 0.933614 32.186459 -1.562504
v 0.121114 33.59375 -1.375005
v 0.933614 32.186459 -1.375004
v 0.878886 34.03125 -1.375006
v 1.691386 32.623959 -1.375005
vt 0.219727 0.50293
vt 0.233398 0.50293
vt 0.233398 0.52832
vt 0.219727 0.52832
vt 0.216797 0.50293
vt 0.219727 0.50293
vt 0.219727 0.52832
vt 0.216797 0.52832
vt 0.233398 0.50293
vt 0.236328 0.50293
vt 0.236328 0.52832
vt 0.233398 0.52832
vt 0.233398 0.53125
vt 0.219727 0.53125
vt 0.219727 0.52832
vt 0.233398 0.52832
vn -6.820510694484584e-7 -0.0000011043675358143858 -0.9999999999991577
vn -0.8660253605306271 -0.5000000749177917 0
vn 0.8660253605306271 0.5000000749177919 0
vn 0.5000001129848547 -0.8660253385525926 0
v 0.0625 33.8125 -1.561255
v 0.9375 33.8125 -1.561255
v 0.9375 32.1875 -1.561254
v 0.0625 32.1875 -1.561254
v 0.0625 33.8125 -1.373755
v 0.0625 32.1875 -1.373754
v 0.9375 33.8125 -1.373755
v 0.9375 32.1875 -1.373754
vt 0.219727 0.50293
vt 0.233398 0.50293
vt 0.233398 0.52832
vt 0.219727 0.52832
vt 0.216797 0.50293
vt 0.219727 0.50293
vt 0.219727 0.52832
vt 0.216797 0.52832
vt 0.233398 0.50293
vt 0.236328 0.50293
vt 0.236328 0.52832
vt 0.233398 0.52832
vt 0.233398 0.53125
vt 0.219727 0.53125
vt 0.219727 0.52832
vt 0.233398 0.52832
vn 0 -6.153846154705162e-7 -0.9999999999998107
vn -1 0 0
vn 1 0 0
vn 0 -1 0
v 0.121114 34.03125 -1.562506
v 0.878886 33.59375 -1.562505
v 0.066386 32.186459 -1.562504
v -0.691386 32.623959 -1.562505
v 0.121114 34.03125 -1.375006
v -0.691386 32.623959 -1.375005
v 0.878886 33.59375 -1.375005
v 0.066386 32.186459 -1.375004
vt 0.219727 0.50293
vt 0.233398 0.50293
vt 0.233398 0.52832
vt 0.219727 0.52832
vt 0.216797 0.50293
vt 0.219727 0.50293
vt 0.219727 0.52832
vt 0.216797 0.52832
vt 0.233398 0.50293
vt 0.236328 0.50293
vt 0.236328 0.52832
vt 0.233398 0.52832
vt 0.233398 0.53125
vt 0.219727 0.53125
vt 0.219727 0.52832
vt 0.233398 0.52832
vn 6.820510693801371e-7 -0.000001104367535932722 -0.9999999999991577
vn -0.8660253605306271 0.5000000749177917 0
vn 0.8660253605306271 -0.5000000749177917 0
vn -0.5000001129848547 -0.8660253385525926 0
v 0.28125 34.191387 -1.561256
v 0.71875 33.433613 -1.561255
v -0.688541 32.621113 -1.561255
v -1.126041 33.378887 -1.561255
v 0.28125 34.191387 -1.373756
v -1.126041 33.378887 -1.373755
v 0.71875 33.433613 -1.373755
v -0.688541 32.621113 -1.373755
vt 0.219727 0.50293
vt 0.233398 0.50293
vt 0.233398 0.52832
vt 0.219727 0.52832
vt 0.216797 0.50293
vt 0.219727 0.50293
vt 0.219727 0.52832
vt 0.216797 0.52832
vt 0.233398 0.50293
vt 0.236328 0.50293
vt 0.236328 0.52832
vt 0.233398 0.52832
vt 0.233398 0.53125
vt 0.219727 0.53125
vt 0.219727 0.52832
vt 0.233398 0.52832
vn 5.714276549934856e-7 -9.897415335673073e-7 -0.999999999999347
vn -0.500000074917792 0.8660253605306271 0
vn 0.5000000749177921 -0.866025360530627 0
vn -0.8660259099798541 -0.4999991232427972 0
v 0.5 34.25 -1.562506
v 0.5 33.375 -1.562505
v -1.125 33.375 -1.562505
v -1.125 34.25 -1.562506
v 0.5 34.25 -1.375006
v -1.125 34.25 -1.375006
v 0.5 33.375 -1.375005
v -1.125 33.375 -1.375005
vt 0.219727 0.50293
vt 0.233398 0.50293
vt 0.233398 0.52832
vt 0.219727 0.52832
vt 0.216797 0.50293
vt 0.219727 0.50293
vt 0.219727 0.52832
vt 0.216797 0.52832
vt 0.233398 0.50293
vt 0.236328 0.50293
vt 0.236328 0.52832
vt 0.233398 0.52832
vt 0.233398 0.53125
vt 0.219727 0.53125
vt 0.219727 0.52832
vt 0.233398 0.52832
vn 0 -0.0000011428571427623776 -0.999999999999347
vn 0 1 0
vn 0 -1 0
vn -1 0 0
v 0.71875 34.191387 -1.561256
v 0.28125 33.433613 -1.561255
v -1.126041 34.246113 -1.561256
v -0.688541 35.003887 -1.561256
v 0.71875 34.191387 -1.373756
v -0.688541 35.003887 -1.373756
v 0.28125 33.433613 -1.373755
v -1.126041 34.246113 -1.373756
vt 0.219727 0.50293
vt 0.233398 0.50293
vt 0.233398 0.52832
vt 0.219727 0.52832
vt 0.216797 0.50293
vt 0.219727 0.50293
vt 0.219727 0.52832
vt 0.216797 0.52832
vt 0.233398 0.50293
vt 0.236328 0.50293
vt 0.236328 0.52832
vt 0.233398 0.52832
vt 0.233398 0.53125
vt 0.219727 0.53125
vt 0.219727 0.52832
vt 0.233398 0.52832
vn -3.848855365805398e-8 -0.000001297433347794323 -0.9999999999991577
vn 0.5000000749177921 0.866025360530627 0
vn -0.500000074917792 -0.8660253605306271 0
vn -0.8660259099798541 0.4999991232427972 0
v 1.077425 31.563749 0.260818
v 0.5034 31.563749 -1.125001
v 0.5034 31.876249 -1.125001
v 1.077425 31.876249 0.260818
v -0.65145 31.563749 -0.646647
v -0.077425 31.563749 0.739173
v -0.077425 31.876249 0.739173
v -0.65145 31.876249 -0.646647
vt 0.457031 0.741211
vt 0.480469 0.741211
vt 0.480469 0.746094
vt 0.457031 0.746094
vt 0.5 0.741211
vt 0.523438 0.741211
vt 0.523438 0.746094
vt 0.5 0.746094
vt 0.480469 0.741211
vt 0.5 0.741211
vt 0.5 0.746094
vt 0.480469 0.746094
vt 0.503906 0.746094
vt 0.480469 0.746094
vt 0.480469 0.765625
vt 0.503906 0.765625
vn 0.9238795383553654 0 -0.3826834182562361
vn -0.9238796359863625 0 0.3826831825540631
vn -0.382683068746955 0 -0.9238796831267659
vn 0 -1 0
v 1.077425 31.5625 0.739173
v 1.65145 31.5625 -0.646647
v 1.65145 31.875 -0.646647
v 1.077425 31.875 0.739173
v 0.4966 31.5625 -1.125001
v -0.077425 31.5625 0.260818
v -0.077425 31.875 0.260818
v 0.4966 31.875 -1.125001
vt 0.457031 0.741211
vt 0.480469 0.741211
vt 0.480469 0.746094
vt 0.457031 0.746094
vt 0.5 0.741211
vt 0.523438 0.741211
vt 0.523438 0.746094
vt 0.5 0.746094
vt 0.480469 0.741211
vt 0.5 0.741211
vt 0.5 0.746094
vt 0.480469 0.746094
vt 0.503906 0.746094
vt 0.480469 0.746094
vt 0.480469 0.765625
vt 0.503906 0.765625
vn 0.9238796359863625 0 0.3826831825540631
vn -0.9238795383553653 0 -0.3826834182562359
vn 0.382683068746955 0 -0.923879683126766
vn 0 -1 0
v 0.739177 31.563749 1.07742
v 2.124996 31.563749 0.503395
v 2.124996 31.876249 0.503395
v 0.739177 31.876249 1.07742
v 1.646642 31.563749 -0.651454
v 0.260823 31.563749 -0.077429
v 0.260823 31.876249 -0.077429
v 1.646642 31.876249 -0.651454
vt 0.457031 0.741211
vt 0.480469 0.741211
vt 0.480469 0.746094
vt 0.457031 0.746094
vt 0.5 0.741211
vt 0.523438 0.741211
vt 0.523438 0.746094
vt 0.5 0.746094
vt 0.480469 0.741211
vt 0.5 0.741211
vt 0.5 0.746094
vt 0.480469 0.746094
vt 0.503906 0.746094
vt 0.480469 0.746094
vt 0.480469 0.765625
vt 0.503906 0.765625
vn 0.3826834182562359 0 0.9238795383553653
vn -0.3826834182562359 0 -0.9238795383553653
vn 0.9238795659696114 0 -0.38268335158953887
vn 0 -1 0
v 0.260823 31.5625 1.07742
v 1.646642 31.5625 1.651445
v 1.646642 31.875 1.651445
v 0.260823 31.875 1.07742
v 2.124996 31.5625 0.496596
v 0.739177 31.5625 -0.077429
v 0.739177 31.875 -0.077429
v 2.124996 31.875 0.496596
vt 0.457031 0.741211
vt 0.480469 0.741211
vt 0.480469 0.746094
vt 0.457031 0.746094
vt 0.5 0.741211
vt 0.523438 0.741211
vt 0.523438 0.746094
vt 0.5 0.746094
vt 0.480469 0.741211
vt 0.5 0.741211
vt 0.5 0.746094
vt 0.480469 0.746094
vt 0.503906 0.746094
vt 0.480469 0.746094
vt 0.480469 0.765625
vt 0.503906 0.765625
vn -0.3826834182562359 0 0.9238795383553653
vn 0.3826834182562359 0 -0.9238795383553653
vn 0.9238795659696114 0 0.38268335158953887
vn 0 -1 0
v -0.077425 31.563749 0.739173
v 0.4966 31.563749 2.124992
v 0.4966 31.876249 2.124992
v -0.077425 31.876249 0.739173
v 1.65145 31.563749 1.646638
v 1.077425 31.563749 0.260818
v 1.077425 31.876249 0.260818
v 1.65145 31.876249 1.646638
vt 0.457031 0.741211
vt 0.480469 0.741211
vt 0.480469 0.746094
vt 0.457031 0.746094
vt 0.5 0.741211
vt 0.523438 0.741211
vt 0.523438 0.746094
vt 0.5 0.746094
vt 0.480469 0.741211
vt 0.5 0.741211
vt 0.5 0.746094
vt 0.480469 0.746094
vt 0.503906 0.746094
vt 0.480469 0.746094
vt 0.480469 0.765625
vt 0.503906 0.765625
vn -0.9238795383553653 0 0.38268341825623586
vn 0.9238796359863625 0 -0.3826831825540631
vn 0.3826830687469551 0 0.9238796831267658
vn 0 -1 0
v 0.260823 31.563749 -0.077429
v -1.124996 31.563749 0.496596
v -1.124996 31.876249 0.496596
v 0.260823 31.876249 -0.077429
v -0.646642 31.563749 1.651445
v 0.739177 31.563749 1.07742
v 0.739177 31.876249 1.07742
v -0.646642 31.876249 1.651445
vt 0.457031 0.741211
vt 0.480469 0.741211
vt 0.480469 0.746094
vt 0.457031 0.746094
vt 0.5 0.741211
vt 0.523438 0.741211
vt 0.523438 0.746094
vt 0.5 0.746094
vt 0.480469 0.741211
vt 0.5 0.741211
vt 0.5 0.746094
vt 0.480469 0.746094
vt 0.503906 0.746094
vt 0.480469 0.746094
vt 0.480469 0.765625
vt 0.503906 0.765625
vn -0.38268341825623586 0 -0.9238795383553653
vn 0.38268341825623586 0 0.9238795383553653
vn -0.9238795659696113 0 0.3826833515895389
vn 0 -1 0
v -0.077425 31.5625 0.260818
v -0.65145 31.5625 1.646638
v -0.65145 31.875 1.646638
v -0.077425 31.875 0.260818
v 0.5034 31.5625 2.124992
v 1.077425 31.5625 0.739173
v 1.077425 31.875 0.739173
v 0.5034 31.875 2.124992
vt 0.457031 0.741211
vt 0.480469 0.741211
vt 0.480469 0.746094
vt 0.457031 0.746094
vt 0.5 0.741211
vt 0.523438 0.741211
vt 0.523438 0.746094
vt 0.5 0.746094
vt 0.480469 0.741211
vt 0.5 0.741211
vt 0.5 0.746094
vt 0.480469 0.746094
vt 0.503906 0.746094
vt 0.480469 0.746094
vt 0.480469 0.765625
vt 0.503906 0.765625
vn -0.9238796359863625 0 -0.3826831825540631
vn 0.9238795383553654 0 0.38268341825623603
vn -0.3826830687469552 0 0.9238796831267658
vn 0 -1 0
o base_bottom
v 3.5 0 -2.5
v -2.5 0 -2.5
v -2.5 0.5 -2.5
v 3.5 0.5 -2.5
v 3.5 0 3.5
v 3.5 0.5 3.5
v -2.5 0 3.5
v -2.5 0.5 3.5
vt 0.21875 0.898438
vt 0.3125 0.898438
vt 0.3125 0.90625
vt 0.21875 0.90625
vt 0.125 0.898438
vt 0.21875 0.898438
vt 0.21875 0.90625
vt 0.125 0.90625
vt 0.40625 0.898438
vt 0.5 0.898438
vt 0.5 0.90625
vt 0.40625 0.90625
vt 0.3125 0.898438
vt 0.40625 0.898438
vt 0.40625 0.90625
vt 0.3125 0.90625
vt 0.3125 1
vt 0.21875 1
vt 0.21875 0.90625
vt 0.3125 0.90625
vt 0.40625 0.90625
vt 0.3125 0.90625
vt 0.3125 1
vt 0.40625 1
vn 0 0 -1
vn 1 0 0
vn 0 0 1
vn -1 0 0
vn 0 1 0
vn 0 -1 0
usemtl Base
f 209/453/114 210/454/114 211/455/114 212/456/114
f 213/457/115 209/458/115 212/459/115 214/460/115
f 215/461/116 213/462/116 214/463/116 216/464/116
f 210/465/117 215/466/117 216/467/117 211/468/117
f 216/469/118 214/470/118 212/471/118 211/472/118
f 210/473/119 209/474/119 213/475/119 215/476/119
o base_connector
v -1.735337 0.613785 -0.9375
v -2.428247 0.326773 -0.9375
v -2.691342 0.96194 -0.9375
v -1.998432 1.248952 -0.9375
v -2.428247 0.326773 1.9375
v -1.735337 0.613785 1.9375
v -1.998432 1.248953 1.9375
v -2.691342 0.96194 1.9375
vt 0.414062 0.613281
vt 0.425781 0.613281
vt 0.425781 0.624023
vt 0.414062 0.624023
vt 0.470703 0.613281
vt 0.482422 0.613281
vt 0.482422 0.624023
vt 0.470703 0.624023
vt 0.470703 0.635742
vt 0.425781 0.635742
vt 0.425781 0.624023
vt 0.470703 0.624023
vn 0 0 -1
vn 0 0 1
vn -0.38268261351832866 0.9238798716882399 -3.213495205607775e-7
usemtl Base
f 217/477/120 218/478/120 219/479/120 220/480/120
f 221/481/121 222/482/121 223/483/121 224/484/121
f 223/485/122 220/486/122 219/487/122 224/488/122
o base_connector.001
v 2.735337 0.613785 1.9375
v 3.428247 0.326773 1.9375
v 3.691342 0.96194 1.9375
v 2.998432 1.248953 1.9375
v 3.428247 0.326773 -0.9375
v 2.735337 0.613785 -0.9375
v 2.998432 1.248952 -0.9375
v 3.691342 0.96194 -0.9375
vt 0.414062 0.613281
vt 0.425781 0.613281
vt 0.425781 0.624023
vt 0.414062 0.624023
vt 0.470703 0.613281
vt 0.482422 0.613281
vt 0.482422 0.624023
vt 0.470703 0.624023
vt 0.470703 0.635742
vt 0.425781 0.635742
vt 0.425781 0.624023
vt 0.470703 0.624023
vn 0 0 1
vn 0 0 -1
vn 0.3826837515893226 0.9238794002841596 -3.213493565941409e-7
usemtl Base
f 225/489/123 226/490/123 227/491/123 228/492/123
f 229/493/124 230/494/124 231/495/124 232/496/124
f 231/497/125 228/498/125 227/499/125 232/500/125
o base_connector.002
v 1.9375 0.326773 3.428247
v 1.9375 0.613785 2.735337
v 1.9375 1.248953 2.998432
v 1.9375 0.96194 3.691342
v -0.9375 0.613785 2.735337
v -0.9375 0.326773 3.428247
v -0.9375 0.96194 3.691342
v -0.9375 1.248953 2.998432
vt 0.414062 0.613281
vt 0.425781 0.613281
vt 0.425781 0.624023
vt 0.414062 0.624023
vt 0.470703 0.613281
vt 0.482422 0.613281
vt 0.482422 0.624023
vt 0.470703 0.624023
vt 0.470703 0.635742
vt 0.425781 0.635742
vt 0.425781 0.624023
vt 0.470703 0.624023
vn 1 0 0
vn -1 0 0
vn 0 0.9238794002842073 0.38268375158934237
usemtl Base
f 233/501/126 234/502/126 235/503/126 236/504/126
f 237/505/127 238/506/127 239/507/127 240/508/127
f 239/509/128 236/510/128 235/511/128 240/512/128
o base_connector.003
v 1.9375 0.613785 -1.735337
v 1.9375 0.326772 -2.428247
v 1.9375 0.96194 -2.691342
v 1.9375 1.248952 -1.998432
v -0.9375 0.326772 -2.428247
v -0.9375 0.613785 -1.735337
v -0.9375 1.248952 -1.998432
v -0.9375 0.96194 -2.691342
vt 0.414062 0.613281
vt 0.425781 0.613281
vt 0.425781 0.624023
vt 0.414062 0.624023
vt 0.470703 0.613281
vt 0.482422 0.613281
vt 0.482422 0.624023
vt 0.470703 0.624023
vt 0.470703 0.635742
vt 0.425781 0.635742
vt 0.425781 0.624023
vt 0.470703 0.624023
vn 1 0 0
vn -1 0 0
vn 0 0.9238798716882876 -0.38268261351834837
usemtl Base
f 241/513/129 242/514/129 243/515/129 244/516/129
f 245/517/130 246/518/130 247/519/130 248/520/130
f 247/521/131 244/522/131 243/523/131 248/524/131
o base_connector_side
v -2.9375 0 -1
v -2.9375 0 2
v -2.9375 1 2
v -2.9375 1 -1
v -2.5 0 -1
v -2.5 1 -1
v -2.5 0 2
v -2.5 1 2
vt 0.420898 0.59082
vt 0.467773 0.59082
vt 0.467773 0.606445
vt 0.420898 0.606445
vt 0.414062 0.59082
vt 0.420898 0.59082
vt 0.420898 0.606445
vt 0.414062 0.606445
vt 0.474609 0.59082
vt 0.521484 0.59082
vt 0.521484 0.606445
vt 0.474609 0.606445
vt 0.467773 0.59082
vt 0.474609 0.59082
vt 0.474609 0.606445
vt 0.467773 0.606445
vt 0.467773 0.613281
vt 0.420898 0.613281
vt 0.420898 0.606445
vt 0.467773 0.606445
vt 0.514648 0.606445
vt 0.467773 0.606445
vt 0.467773 0.613281
vt 0.514648 0.613281
vn -1 0 0
vn 0 0 -1
vn 1 0 0
vn 0 0 1
vn 0 1 0
vn 0 -1 0
usemtl Base
f 249/525/132 250/526/132 251/527/132 252/528/132
f 253/529/133 249/530/133 252/531/133 254/532/133
f 255/533/134 253/534/134 254/535/134 256/536/134
f 250/537/135 255/538/135 256/539/135 251/540/135
f 256/541/136 254/542/136 252/543/136 251/544/136
f 250/545/137 249/546/137 253/547/137 255/548/137
o base_connector_side.001
v 3.9375 0 2
v 3.9375 0 -1
v 3.9375 1 -1
v 3.9375 1 2
v 3.5 0 2
v 3.5 1 2
v 3.5 0 -1
v 3.5 1 -1
vt 0.420898 0.59082
vt 0.467773 0.59082
vt 0.467773 0.606445
vt 0.420898 0.606445
vt 0.414062 0.59082
vt 0.420898 0.59082
vt 0.420898 0.606445
vt 0.414062 0.606445
vt 0.474609 0.59082
vt 0.521484 0.59082
vt 0.521484 0.606445
vt 0.474609 0.606445
vt 0.467773 0.59082
vt 0.474609 0.59082
vt 0.474609 0.606445
vt 0.467773 0.606445
vt 0.467773 0.613281
vt 0.420898 0.613281
vt 0.420898 0.606445
vt 0.467773 0.606445
vt 0.514648 0.606445
vt 0.467773 0.606445
vt 0.467773 0.613281
vt 0.514648 0.613281
vn 1 0 0
vn 0 0 1
vn -1 0 0
vn 0 0 -1
vn 0 1 0
vn 0 -1 0
usemtl Base
f 257/549/138 258/550/138 259/551/138 260/552/138
f 261/553/139 257/554/139 260/555/139 262/556/139
f 263/557/140 261/558/140 262/559/140 264/560/140
f 258/561/141 263/562/141 264/563/141 259/564/141
f 264/565/142 262/566/142 260/567/142 259/568/142
f 258/569/143 257/570/143 261/571/143 263/572/143
o base_connector_side.002
v 2 0 -2.9375
v -1 0 -2.9375
v -1 1 -2.9375
v 2 1 -2.9375
v 2 0 -2.5
v 2 1 -2.5
v -1 0 -2.5
v -1 1 -2.5
vt 0.420898 0.59082
vt 0.467773 0.59082
vt 0.467773 0.606445
vt 0.420898 0.606445
vt 0.414062 0.59082
vt 0.420898 0.59082
vt 0.420898 0.606445
vt 0.414062 0.606445
vt 0.474609 0.59082
vt 0.521484 0.59082
vt 0.521484 0.606445
vt 0.474609 0.606445
vt 0.467773 0.59082
vt 0.474609 0.59082
vt 0.474609 0.606445
vt 0.467773 0.606445
vt 0.467773 0.613281
vt 0.420898 0.613281
vt 0.420898 0.606445
vt 0.467773 0.606445
vt 0.514648 0.606445
vt 0.467773 0.606445
vt 0.467773 0.613281
vt 0.514648 0.613281
vn 0 0 -1
vn 1 0 0
vn 0 0 1
vn -1 0 0
vn 0 1 0
vn 0 -1 0
usemtl Base
f 265/573/144 266/574/144 267/575/144 268/576/144
f 269/577/145 265/578/145 268/579/145 270/580/145
f 271/581/146 269/582/146 270/583/146 272/584/146
f 266/585/147 271/586/147 272/587/147 267/588/147
f 272/589/148 270/590/148 268/591/148 267/592/148
f 266/593/149 265/594/149 269/595/149 271/596/149
o base_middle
v 3 0.5 -2
v -2 0.5 -2
v -2 1.5 -2
v 3 1.5 -2
v 3 0.5 3
v 3 1.5 3
v -2 0.5 3
v -2 1.5 3
vt 0.203125 0.666016
vt 0.28125 0.666016
vt 0.28125 0.681641
vt 0.203125 0.681641
vt 0.125 0.666016
vt 0.203125 0.666016
vt 0.203125 0.681641
vt 0.125 0.681641
vt 0.359375 0.666016
vt 0.4375 0.666016
vt 0.4375 0.681641
vt 0.359375 0.681641
vt 0.28125 0.666016
vt 0.359375 0.666016
vt 0.359375 0.681641
vt 0.28125 0.681641
vt 0.28125 0.759766
vt 0.203125 0.759766
vt 0.203125 0.681641
vt 0.28125 0.681641
vn 0 0 -1
vn 1 0 0
vn 0 0 1
vn -1 0 0
vn 0 1 0
usemtl Base
f 273/597/150 274/598/150 275/599/150 276/600/150
f 277/601/151 273/602/151 276/603/151 278/604/151
f 279/605/152 277/606/152 278/607/152 280/608/152
f 274/609/153 279/610/153 280/611/153 275/612/153
f 280/613/154 278/614/154 276/615/154 275/616/154
v 2.8125 1.5 -1.8125
v -1.8125 1.5 -1.8125
v -1.8125 2 -1.8125
v 2.8125 2 -1.8125
v 2.8125 1.5 2.8125
v 2.8125 2 2.8125
v -1.8125 1.5 2.8125
v -1.8125 2 2.8125
vt 0.197266 0.585938
vt 0.269531 0.585938
vt 0.269531 0.59375
vt 0.197266 0.59375
vt 0.125 0.585938
vt 0.197266 0.585938
vt 0.197266 0.59375
vt 0.125 0.59375
vt 0.341797 0.585938
vt 0.414062 0.585938
vt 0.414062 0.59375
vt 0.341797 0.59375
vt 0.269531 0.585938
vt 0.341797 0.585938
vt 0.341797 0.59375
vt 0.269531 0.59375
vt 0.269531 0.666016
vt 0.197266 0.666016
vt 0.197266 0.59375
vt 0.269531 0.59375
vn 0 0 -1
vn 1 0 0
vn 0 0 1
vn -1 0 0
vn 0 1 0
v 2 2 2.8125
v -1 2 2.8125
v -1 2.125 2.8125
v 2 2.125 2.8125
v 2 2 3.875
v 2 2.125 3.875
v -1 2 3.875
v -1 2.125 3.875
vt 0.327148 0.567383
vt 0.374023 0.567383
vt 0.374023 0.569336
vt 0.327148 0.569336
vt 0.310547 0.567383
vt 0.327148 0.567383
vt 0.327148 0.569336
vt 0.310547 0.569336
vt 0.390625 0.567383
vt 0.4375 0.567383
vt 0.4375 0.569336
vt 0.390625 0.569336
vt 0.374023 0.567383
vt 0.390625 0.567383
vt 0.390625 0.569336
vt 0.374023 0.569336
vt 0.374023 0.585938
vt 0.327148 0.585938
vt 0.327148 0.569336
vt 0.374023 0.569336
vt 0.420898 0.569336
vt 0.374023 0.569336
vt 0.374023 0.585938
vt 0.420898 0.585938
vn 0 0 -1
vn 1 0 0
vn 0 0 1
vn -1 0 0
vn 0 1 0
vn 0 -1 0
v 1 2 -1.375
v 0 2 -1.375
v 0 4 -1.375
v 1 4 -1.375
v 1 2 -1.25
v 1 4 -1.25
v 0 2 -1.25
v 0 4 -1.25
vt 0.412109 0.512695
vt 0.427734 0.512695
vt 0.427734 0.543945
vt 0.412109 0.543945
vt 0.410156 0.512695
vt 0.412109 0.512695
vt 0.412109 0.543945
vt 0.410156 0.543945
vt 0.427734 0.512695
vt 0.429688 0.512695
vt 0.429688 0.543945
vt 0.427734 0.543945
vt 0.427734 0.545898
vt 0.412109 0.545898
vt 0.412109 0.543945
vt 0.427734 0.543945
vn 0 0 -1
vn 1 0 0
vn -1 0 0
vn 0 1 0
v 1.5 35.75 2.187494
v 1.4375 35.75 2.187494
v 1.4375 35.8125 2.187494
v 1.5 35.8125 2.187494
v 1.5 35.75 2.687494
v 1.5 35.8125 2.687494
v 1.4375 35.75 2.687494
v 1.4375 35.8125 2.687494
vt 0.496094 0.539062
vt 0.49707 0.539062
vt 0.49707 0.540039
vt 0.496094 0.540039
vt 0.488281 0.539062
vt 0.496094 0.539062
vt 0.496094 0.540039
vt 0.488281 0.540039
vt 0.504883 0.539062
vt 0.505859 0.539062
vt 0.505859 0.540039
vt 0.504883 0.540039
vt 0.49707 0.539062
vt 0.504883 0.539062
vt 0.504883 0.540039
vt 0.49707 0.540039
vt 0.49707 0.547852
vt 0.496094 0.547852
vt 0.496094 0.540039
vt 0.49707 0.540039
vt 0.498047 0.540039
vt 0.49707 0.540039
vt 0.49707 0.547852
vt 0.498047 0.547852
vn 0 0 -1
vn 1 0 0
vn 0 0 1
vn -1 0 0
vn 0 1 0
vn 0 -1 0
v 0.125 2.6875 -1.4375
v 0.0625 2.6875 -1.4375
v 0.0625 3.3125 -1.4375
v 0.125 3.3125 -1.4375
v 0.125 2.6875 -1.375
v 0.125 3.3125 -1.375
v 0.0625 2.6875 -1.375
v 0.0625 3.3125 -1.375
vt 0.467773 0.504883
vt 0.46875 0.504883
vt 0.46875 0.514648
vt 0.467773 0.514648
vt 0.466797 0.504883
vt 0.467773 0.504883
vt 0.467773 0.514648
vt 0.466797 0.514648
vt 0.469727 0.504883
vt 0.470703 0.504883
vt 0.470703 0.514648
vt 0.469727 0.514648
vt 0.46875 0.504883
vt 0.469727 0.504883
vt 0.469727 0.514648
vt 0.46875 0.514648
vt 0.46875 0.515625
vt 0.467773 0.515625
vt 0.467773 0.514648
vt 0.46875 0.514648
vt 0.469727 0.514648
vt 0.46875 0.514648
vt 0.46875 0.515625
vt 0.469727 0.515625
vn 0 0 -1
vn 1 0 0
vn 0 0 1
vn -1 0 0
vn 0 1 0
vn 0 -1 0
v 0.9375 2.6875 -1.4375
v 0.875 2.6875 -1.4375
v 0.875 3.3125 -1.4375
v 0.9375 3.3125 -1.4375
v 0.9375 2.6875 -1.375
v 0.9375 3.3125 -1.375
v 0.875 2.6875 -1.375
v 0.875 3.3125 -1.375
vt 0.467773 0.504883
vt 0.46875 0.504883
vt 0.46875 0.514648
vt 0.467773 0.514648
vt 0.466797 0.504883
vt 0.467773 0.504883
vt 0.467773 0.514648
vt 0.466797 0.514648
vt 0.469727 0.504883
vt 0.470703 0.504883
vt 0.470703 0.514648
vt 0.469727 0.514648
vt 0.46875 0.504883
vt 0.469727 0.504883
vt 0.469727 0.514648
vt 0.46875 0.514648
vt 0.46875 0.515625
vt 0.467773 0.515625
vt 0.467773 0.514648
vt 0.46875 0.514648
vt 0.469727 0.514648
vt 0.46875 0.514648
vt 0.46875 0.515625
vt 0.469727 0.515625
vn 0 0 -1
vn 1 0 0
vn 0 0 1
vn -1 0 0
vn 0 1 0
vn 0 -1 0
v -0.4375 35.75 2.187494
v -0.5 35.75 2.187494
v -0.5 35.8125 2.187494
v -0.4375 35.8125 2.187494
v -0.4375 35.75 2.687494
v -0.4375 35.8125 2.687494
v -0.5 35.75 2.687494
v -0.5 35.8125 2.687494
vt 0.496094 0.539062
vt 0.49707 0.539062
vt 0.49707 0.540039
vt 0.496094 0.540039
vt 0.488281 0.539062
vt 0.496094 0.539062
vt 0.496094 0.540039
vt 0.488281 0.540039
vt 0.504883 0.539062
vt 0.505859 0.539062
vt 0.505859 0.540039
vt 0.504883 0.540039
vt 0.49707 0.539062
vt 0.504883 0.539062
vt 0.504883 0.540039
vt 0.49707 0.540039
vt 0.49707 0.547852
vt 0.496094 0.547852
vt 0.496094 0.540039
vt 0.49707 0.540039
vt 0.498047 0.540039
vt 0.49707 0.540039
vt 0.49707 0.547852
vt 0.498047 0.547852
vn 0 0 -1
vn 1 0 0
vn 0 0 1
vn -1 0 0
vn 0 1 0
vn 0 -1 0
v 0.375 35.75 2.187494
v 0.3125 35.75 2.187494
v 0.3125 35.8125 2.187494
v 0.375 35.8125 2.187494
v 0.375 35.75 2.687494
v 0.375 35.8125 2.687494
v 0.3125 35.75 2.687494
v 0.3125 35.8125 2.687494
vt 0.496094 0.539062
vt 0.49707 0.539062
vt 0.49707 0.540039
vt 0.496094 0.540039
vt 0.488281 0.539062
vt 0.496094 0.539062
vt 0.496094 0.540039
vt 0.488281 0.540039
vt 0.504883 0.539062
vt 0.505859 0.539062
vt 0.505859 0.540039
vt 0.504883 0.540039
vt 0.49707 0.539062
vt 0.504883 0.539062
vt 0.504883 0.540039
vt 0.49707 0.540039
vt 0.49707 0.547852
vt 0.496094 0.547852
vt 0.496094 0.540039
vt 0.49707 0.540039
vt 0.498047 0.540039
vt 0.49707 0.540039
vt 0.49707 0.547852
vt 0.498047 0.547852
vn 0 0 -1
vn 1 0 0
vn 0 0 1
vn -1 0 0
vn 0 1 0
vn 0 -1 0
v 0.6875 35.75 2.187494
v 0.625 35.75 2.187494
v 0.625 35.8125 2.187494
v 0.6875 35.8125 2.187494
v 0.6875 35.75 2.687494
v 0.6875 35.8125 2.687494
v 0.625 35.75 2.687494
v 0.625 35.8125 2.687494
vt 0.496094 0.539062
vt 0.49707 0.539062
vt 0.49707 0.540039
vt 0.496094 0.540039
vt 0.488281 0.539062
vt 0.496094 0.539062
vt 0.496094 0.540039
vt 0.488281 0.540039
vt 0.504883 0.539062
vt 0.505859 0.539062
vt 0.505859 0.540039
vt 0.504883 0.540039
vt 0.49707 0.539062
vt 0.504883 0.539062
vt 0.504883 0.540039
vt 0.49707 0.540039
vt 0.49707 0.547852
vt 0.496094 0.547852
vt 0.496094 0.540039
vt 0.49707 0.540039
vt 0.498047 0.540039
vt 0.49707 0.540039
vt 0.49707 0.547852
vt 0.498047 0.547852
vn 0 0 -1
vn 1 0 0
vn 0 0 1
vn -1 0 0
vn 0 1 0
vn 0 -1 0
o keyboard
v 0.9375 0.996622 3.451407
v 0.0625 0.996622 3.451407
v 0.0625 1.054365 3.475324
v 0.9375 1.054365 3.475324
v 0.9375 0.853116 3.797861
v 0.9375 0.910859 3.821779
v 0.0625 0.853116 3.797861
v 0.0625 0.910859 3.821779
vt 0.443359 0.672852
vt 0.457031 0.672852
vt 0.457031 0.673828
vt 0.443359 0.673828
vt 0.4375 0.672852
vt 0.443359 0.672852
vt 0.443359 0.673828
vt 0.4375 0.673828
vt 0.462891 0.672852
vt 0.476562 0.672852
vt 0.476562 0.673828
vt 0.462891 0.673828
vt 0.457031 0.672852
vt 0.462891 0.672852
vt 0.462891 0.673828
vt 0.457031 0.673828
vt 0.457031 0.679688
vt 0.443359 0.679688
vt 0.443359 0.673828
vt 0.457031 0.673828
vt 0.470703 0.673828
vt 0.457031 0.673828
vt 0.457031 0.679688
vt 0.470703 0.679688
vn 0 0.382670680529277 -0.9238848143915236
vn 1 0 0
vn 0 -0.38268433736716023 0.9238791576466361
vn -1 0 0
vn 0 0.9238798716882873 0.38268261351834876
vn 0 -0.923879481164278 -0.3826835563277113
usemtl Base
f 353/821/206 354/822/206 355/823/206 356/824/206
f 357/825/207 353/826/207 356/827/207 358/828/207
f 359/829/208 357/830/208 358/831/208 360/832/208
f 354/833/209 359/834/209 360/835/209 355/836/209
f 360/837/210 358/838/210 356/839/210 355/840/210
f 354/841/211 353/842/211 357/843/211 359/844/211
v 2.31387 1.947664 0.313185
v 0.314556 1.89531 0.313185
v -0.470484 31.874754 -0.472128
v 1.528831 31.927107 -0.472128
v 2.3125 2 2.3125
v 1.527461 31.979443 1.527187
v 0.313185 1.947646 2.3125
v -0.471854 31.92709 1.527187
vt 0.03125 0.5
vt 0.0625 0.5
vt 0.0625 0.96875
vt 0.03125 0.96875
vt 0 0.5
vt 0.03125 0.5
vt 0.03125 0.96875
vt 0 0.96875
vt 0.09375 0.5
vt 0.125 0.5
vt 0.125 0.96875
vt 0.09375 0.96875
vt 0.0625 0.5
vt 0.09375 0.5
vt 0.09375 0.96875
vt 0.0625 0.96875
vn 0.0006852381429298249 -0.02616812874839744 -0.9996573210288088
vn 0.9996573254344291 0.02617693078322703 -2.327365251132673e-7
vn -0.0006852378238515399 0.02616812965186502 0.9996573210053773
vn -0.9996573251147531 -0.02617694299083892 -2.669436100832561e-7
v 0.311311 1.947549 -1.311373
v 0.311311 1.895196 0.687942
v -0.473997 31.87464 1.472977
v -0.473997 31.926992 -0.526338
v 2.310626 1.999885 -1.310002
v 1.525317 31.979328 -0.524967
v 2.310626 1.947532 0.689312
v 1.525317 31.926975 1.474347
vt 0.03125 0.5
vt 0.0625 0.5
vt 0.0625 0.96875
vt 0.03125 0.96875
vt 0 0.5
vt 0.03125 0.5
vt 0.03125 0.96875
vt 0 0.96875
vt 0.09375 0.5
vt 0.125 0.5
vt 0.125 0.96875
vt 0.09375 0.96875
vt 0.0625 0.5
vt 0.09375 0.5
vt 0.09375 0.96875
vt 0.0625 0.96875
vn -0.9996573253871601 -0.02616796271860898 -0.0006852203640783631
vn 2.704098370348367e-7 0.02617681066645017 -0.9996573285797787
vn 0.9996573244920608 0.026167996880386374 0.0006852216013486948
vn 2.292474607242851e-7 -0.026176797586946913 0.999657328922286
v -1.31387 1.947664 0.686815
v 0.685444 1.89531 0.686815
v 1.470484 31.874754 1.472119
v -0.528831 31.927107 1.472119
v -1.3125 2 -1.3125
v -0.527461 31.979443 -0.527196
v 0.686815 1.947646 -1.3125
v 1.471854 31.92709 -0.527196
vt 0.03125 0.5
vt 0.0625 0.5
vt 0.0625 0.96875
vt 0.03125 0.96875
vt 0 0.5
vt 0.03125 0.5
vt 0.03125 0.96875
vt 0 0.96875
vt 0.09375 0.5
vt 0.125 0.5
vt 0.125 0.96875
vt 0.09375 0.96875
vt 0.0625 0.5
vt 0.09375 0.5
vt 0.09375 0.96875
vt 0.0625 0.96875
vn -0.0006852302952087474 -0.026167829056709734 0.9996573288792022
vn -0.9996573254344272 0.0261769307832968 2.3273652694096769e-7
vn 0.0006852299761341172 0.026167829960166984 -0.9996573288557714
vn 0.9996573251147552 -0.02617694299075889 2.669436121239619e-7
v 0.688064 1.947582 2.311997
v 0.688064 1.895228 0.312682
v 1.473373 31.874672 -0.472361
v 1.473373 31.927025 1.526953
v -1.31125 1.999918 2.310626
v -0.525942 31.979361 1.525583
v -1.31125 1.947564 0.311312
v -0.525942 31.927008 -0.473732
vt 0.03125 0.5
vt 0.0625 0.5
vt 0.0625 0.96875
vt 0.03125 0.96875
vt 0 0.5
vt 0.03125 0.5
vt 0.03125 0.96875
vt 0 0.96875
vt 0.09375 0.5
vt 0.125 0.5
vt 0.125 0.96875
vt 0.09375 0.96875
vt 0.0625 0.5
vt 0.09375 0.5
vt 0.09375 0.96875
vt 0.0625 0.96875
vn 0.9996573245196775 -0.026167995492584882 0.0006852343107608302
vn -2.625595673175303e-7 0.026177110358160467 0.9996573207320737
vn -0.9996573253691101 0.026167963056207538 -0.0006852338041171569
vn -2.370751349702672e-7 -0.02617709640667781 -0.9996573210974147
o port_middle
v 4.00125 0.1875 0.8125
v 4.00125 0.1875 0.1875
v 4.00125 0.8125 0.1875
v 4.00125 0.8125 0.8125
vt 0.410156 0.50293
vt 0.419922 0.50293
vt 0.419922 0.512695
vt 0.410156 0.512695
vn 1 0 0
usemtl Base
f 393/909/228 394/910/228 395/911/228 396/912/228
o port_middle.001
v -3.00125 0.1875 0.1875
v -3.00125 0.1875 0.8125
v -3.00125 0.8125 0.8125
v -3.00125 0.8125 0.1875
vt 0.410156 0.50293
vt 0.419922 0.50293
vt 0.419922 0.512695
vt 0.410156 0.512695
vn -1 0 0
usemtl Base
f 397/913/229 398/914/229 399/915/229 400/916/229
o port_middle.002
v 0.8125 0.1875 -3
v 0.1875 0.1875 -3
v 0.1875 0.8125 -3
v 0.8125 0.8125 -3
vt 0.410156 0.50293
vt 0.419922 0.50293
vt 0.419922 0.512695
vt 0.410156 0.512695
vn 0 0 -1
usemtl Base
f 401/917/230 402/918/230 403/919/230 404/920/230
o port_middle.003
v 0.8125 0.1875 -3
v 0.1875 0.1875 -3
v 0.1875 0.8125 -3
v 0.8125 0.8125 -3
v 0.8125 0.1875 -2.9375
v 0.8125 0.8125 -2.9375
v 0.1875 0.1875 -2.9375
v 0.1875 0.8125 -2.9375
vt 0.446289 0.504883
vt 0.456055 0.504883
vt 0.456055 0.514648
vt 0.446289 0.514648
vt 0.445312 0.504883
vt 0.446289 0.504883
vt 0.446289 0.514648
vt 0.445312 0.514648
vt 0.456055 0.504883
vt 0.457031 0.504883
vt 0.457031 0.514648
vt 0.456055 0.514648
vt 0.456055 0.515625
vt 0.446289 0.515625
vt 0.446289 0.514648
vt 0.456055 0.514648
vt 0.46582 0.514648
vt 0.456055 0.514648
vt 0.456055 0.515625
vt 0.46582 0.515625
vn 0 0 -1
vn 1 0 0
vn -1 0 0
vn 0 1 0
vn 0 -1 0
usemtl Base
f 405/921/231 406/922/231 407/923/231 408/924/231
f 409/925/232 405/926/232 408/927/232 410/928/232
f 406/929/233 411/930/233 412/931/233 407/932/233
f 412/933/234 410/934/234 408/935/234 407/936/234
f 406/937/235 405/938/235 409/939/235 411/940/235
o port_middle.004
v 4 0.1875 0.1875
v 3.9375 0.1875 0.1875
v 3.9375 0.8125 0.1875
v 4 0.8125 0.1875
v 4 0.1875 0.8125
v 4 0.8125 0.8125
v 3.9375 0.1875 0.8125
v 3.9375 0.8125 0.8125
vt 0.445312 0.504883
vt 0.446289 0.504883
vt 0.446289 0.514648
vt 0.445312 0.514648
vt 0.457031 0.504883
vt 0.466797 0.504883
vt 0.466797 0.514648
vt 0.457031 0.514648
vt 0.456055 0.504883
vt 0.457031 0.504883
vt 0.457031 0.514648
vt 0.456055 0.514648
vt 0.456055 0.515625
vt 0.446289 0.515625
vt 0.446289 0.514648
vt 0.456055 0.514648
vt 0.46582 0.514648
vt 0.456055 0.514648
vt 0.456055 0.515625
vt 0.46582 0.515625
vn 0 0 -1
vn 1 0 0
vn 0 0 1
vn 0 1 0
vn 0 -1 0
usemtl Base
f 413/941/236 414/942/236 415/943/236 416/944/236
f 417/945/237 413/946/237 416/947/237 418/948/237
f 419/949/238 417/950/238 418/951/238 420/952/238
f 418/953/239 416/954/239 415/955/239 420/956/239
f 419/957/240 414/958/240 413/959/240 417/960/240
o port_middle.005
v -3 0.1875 0.8125
v -2.9375 0.1875 0.8125
v -2.9375 0.8125 0.8125
v -3 0.8125 0.8125
v -3 0.1875 0.1875
v -3 0.8125 0.1875
v -2.9375 0.1875 0.1875
v -2.9375 0.8125 0.1875
vt 0.445312 0.504883
vt 0.446289 0.504883
vt 0.446289 0.514648
vt 0.445312 0.514648
vt 0.457031 0.504883
vt 0.466797 0.504883
vt 0.466797 0.514648
vt 0.457031 0.514648
vt 0.456055 0.504883
vt 0.457031 0.504883
vt 0.457031 0.514648
vt 0.456055 0.514648
vt 0.456055 0.515625
vt 0.446289 0.515625
vt 0.446289 0.514648
vt 0.456055 0.514648
vt 0.46582 0.514648
vt 0.456055 0.514648
vt 0.456055 0.515625
vt 0.46582 0.515625
vn 0 0 1
vn -1 0 0
vn 0 0 -1
vn 0 1 0
vn 0 -1 0
usemtl Base
f 421/961/241 422/962/241 423/963/241 424/964/241
f 425/965/242 421/966/242 424/967/242 426/968/242
f 427/969/243 425/970/243 426/971/243 428/972/243
f 426/973/244 424/974/244 423/975/244 428/976/244
f 427/977/245 422/978/245 421/979/245 425/980/245
o port_side
v -3.00125 0.25 -0.75
v -3.00125 0.25 -0.25
v -3.00125 0.75 -0.25
v -3.00125 0.75 -0.75
vt 0.429688 0.504883
vt 0.4375 0.504883
vt 0.4375 0.512695
vt 0.429688 0.512695
vn -1 0 0
usemtl Base
f 429/981/246 430/982/246 431/983/246 432/984/246
o port_side.001
v 4.00125 0.25 1.75
v 4.00125 0.25 1.25
v 4.00125 0.75 1.25
v 4.00125 0.75 1.75
vt 0.429688 0.504883
vt 0.4375 0.504883
vt 0.4375 0.512695
vt 0.429688 0.512695
vn 1 0 0
usemtl Base
f 433/985/247 434/986/247 435/987/247 436/988/247
o port_side.002
v -3 0.25 -0.25
v -2.9375 0.25 -0.25
v -2.9375 0.75 -0.25
v -3 0.75 -0.25
v -3 0.25 -0.75
v -3 0.75 -0.75
v -2.9375 0.25 -0.75
v -2.9375 0.75 -0.75
vt 0.25 0.50293
vt 0.250977 0.50293
vt 0.250977 0.510742
vt 0.25 0.510742
vt 0.259766 0.50293
vt 0.267578 0.50293
vt 0.267578 0.510742
vt 0.259766 0.510742
vt 0.258789 0.50293
vt 0.259766 0.50293
vt 0.259766 0.510742
vt 0.258789 0.510742
vt 0.258789 0.511719
vt 0.250977 0.511719
vt 0.250977 0.510742
vt 0.258789 0.510742
vt 0.266602 0.510742
vt 0.258789 0.510742
vt 0.258789 0.511719
vt 0.266602 0.511719
vn 0 0 1
vn -1 0 0
vn 0 0 -1
vn 0 1 0
vn 0 -1 0
usemtl Base
f 437/989/248 438/990/248 439/991/248 440/992/248
f 441/993/249 437/994/249 440/995/249 442/996/249
f 443/997/250 441/998/250 442/999/250 444/1000/250
f 442/1001/251 440/1002/251 439/1003/251 444/1004/251
f 443/1005/252 438/1006/252 437/1007/252 441/1008/252
o port_side.003
v 1.75 0.25 -3
v 1.25 0.25 -3
v 1.25 0.75 -3
v 1.75 0.75 -3
vt 0.429688 0.504883
vt 0.4375 0.504883
vt 0.4375 0.512695
vt 0.429688 0.512695
vn 0 0 -1
usemtl Base
f 445/1009/253 446/1010/253 447/1011/253 448/1012/253
o port_side.004
v -0.25 0.25 -3
v -0.75 0.25 -3
v -0.75 0.75 -3
v -0.25 0.75 -3
vt 0.429688 0.504883
vt 0.4375 0.504883
vt 0.4375 0.512695
vt 0.429688 0.512695
vn 0 0 -1
usemtl Base
f 449/1013/254 450/1014/254 451/1015/254 452/1016/254
o port_side.005
v 4.00125 0.25 -0.25
v 4.00125 0.25 -0.75
v 4.00125 0.75 -0.75
v 4.00125 0.75 -0.25
vt 0.429688 0.504883
vt 0.4375 0.504883
vt 0.4375 0.512695
vt 0.429688 0.512695
vn 1 0 0
usemtl Base
f 453/1017/255 454/1018/255 455/1019/255 456/1020/255
o port_side.006
v 1.25 0.25 4
v 1.75 0.25 4
v 1.75 0.75 4
v 1.25 0.75 4
v 1.25 0.25 3.9375
v 1.25 0.75 3.9375
v 1.75 0.25 3.9375
v 1.75 0.75 3.9375
vt 0.250977 0.50293
vt 0.258789 0.50293
vt 0.258789 0.510742
vt 0.250977 0.510742
vt 0.25 0.50293
vt 0.250977 0.50293
vt 0.250977 0.510742
vt 0.25 0.510742
vt 0.258789 0.50293
vt 0.259766 0.50293
vt 0.259766 0.510742
vt 0.258789 0.510742
vt 0.258789 0.511719
vt 0.250977 0.511719
vt 0.250977 0.510742
vt 0.258789 0.510742
vt 0.266602 0.510742
vt 0.258789 0.510742
vt 0.258789 0.511719
vt 0.266602 0.511719
vn 0 0 1
vn -1 0 0
vn 1 0 0
vn 0 1 0
vn 0 -1 0
usemtl Base
f 457/1021/256 458/1022/256 459/1023/256 460/1024/256
f 461/1025/257 457/1026/257 460/1027/257 462/1028/257
f 458/1029/258 463/1030/258 464/1031/258 459/1032/258
f 464/1033/259 462/1034/259 460/1035/259 459/1036/259
f 458/1037/260 457/1038/260 461/1039/260 463/1040/260
o port_side.007
v -0.75 0.25 4
v -0.25 0.25 4
v -0.25 0.75 4
v -0.75 0.75 4
v -0.75 0.25 3.9375
v -0.75 0.75 3.9375
v -0.25 0.25 3.9375
v -0.25 0.75 3.9375
vt 0.250977 0.50293
vt 0.258789 0.50293
vt 0.258789 0.510742
vt 0.250977 0.510742
vt 0.25 0.50293
vt 0.250977 0.50293
vt 0.250977 0.510742
vt 0.25 0.510742
vt 0.258789 0.50293
vt 0.259766 0.50293
vt 0.259766 0.510742
vt 0.258789 0.510742
vt 0.258789 0.511719
vt 0.250977 0.511719
vt 0.250977 0.510742
vt 0.258789 0.510742
vt 0.266602 0.510742
vt 0.258789 0.510742
vt 0.258789 0.511719
vt 0.266602 0.511719
vn 0 0 1
vn -1 0 0
vn 1 0 0
vn 0 1 0
vn 0 -1 0
usemtl Base
f 465/1041/261 466/1042/261 467/1043/261 468/1044/261
f 469/1045/262 465/1046/262 468/1047/262 470/1048/262
f 466/1049/263 471/1050/263 472/1051/263 467/1052/263
f 472/1053/264 470/1054/264 468/1055/264 467/1056/264
f 466/1057/265 465/1058/265 469/1059/265 471/1060/265
o port_side.008
v -3 0.25 1.75
v -2.9375 0.25 1.75
v -2.9375 0.75 1.75
v -3 0.75 1.75
v -3 0.25 1.25
v -3 0.75 1.25
v -2.9375 0.25 1.25
v -2.9375 0.75 1.25
vt 0.25 0.50293
vt 0.250977 0.50293
vt 0.250977 0.510742
vt 0.25 0.510742
vt 0.259766 0.50293
vt 0.267578 0.50293
vt 0.267578 0.510742
vt 0.259766 0.510742
vt 0.258789 0.50293
vt 0.259766 0.50293
vt 0.259766 0.510742
vt 0.258789 0.510742
vt 0.258789 0.511719
vt 0.250977 0.511719
vt 0.250977 0.510742
vt 0.258789 0.510742
vt 0.266602 0.510742
vt 0.258789 0.510742
vt 0.258789 0.511719
vt 0.266602 0.511719
vn 0 0 1
vn -1 0 0
vn 0 0 -1
vn 0 1 0
vn 0 -1 0
usemtl Base
f 473/1061/266 474/1062/266 475/1063/266 476/1064/266
f 477/1065/267 473/1066/267 476/1067/267 478/1068/267
f 479/1069/268 477/1070/268 478/1071/268 480/1072/268
f 478/1073/269 476/1074/269 475/1075/269 480/1076/269
f 479/1077/270 474/1078/270 473/1079/270 477/1080/270
o port_side.009
v 4 0.25 1.25
v 3.9375 0.25 1.25
v 3.9375 0.75 1.25
v 4 0.75 1.25
v 4 0.25 1.75
v 4 0.75 1.75
v 3.9375 0.25 1.75
v 3.9375 0.75 1.75
vt 0.25 0.50293
vt 0.250977 0.50293
vt 0.250977 0.510742
vt 0.25 0.510742
vt 0.259766 0.50293
vt 0.267578 0.50293
vt 0.267578 0.510742
vt 0.259766 0.510742
vt 0.258789 0.50293
vt 0.259766 0.50293
vt 0.259766 0.510742
vt 0.258789 0.510742
vt 0.258789 0.511719
vt 0.250977 0.511719
vt 0.250977 0.510742
vt 0.258789 0.510742
vt 0.266602 0.510742
vt 0.258789 0.510742
vt 0.258789 0.511719
vt 0.266602 0.511719
vn 0 0 -1
vn 1 0 0
vn 0 0 1
vn 0 1 0
vn 0 -1 0
usemtl Base
f 481/1081/271 482/1082/271 483/1083/271 484/1084/271
f 485/1085/272 481/1086/272 484/1087/272 486/1088/272
f 487/1089/273 485/1090/273 486/1091/273 488/1092/273
f 486/1093/274 484/1094/274 483/1095/274 488/1096/274
f 487/1097/275 482/1098/275 481/1099/275 485/1100/275
o port_side.010
v 4 0.25 -0.75
v 3.9375 0.25 -0.75
v 3.9375 0.75 -0.75
v 4 0.75 -0.75
v 4 0.25 -0.25
v 4 0.75 -0.25
v 3.9375 0.25 -0.25
v 3.9375 0.75 -0.25
vt 0.25 0.50293
vt 0.250977 0.50293
vt 0.250977 0.510742
vt 0.25 0.510742
vt 0.259766 0.50293
vt 0.267578 0.50293
vt 0.267578 0.510742
vt 0.259766 0.510742
vt 0.258789 0.50293
vt 0.259766 0.50293
vt 0.259766 0.510742
vt 0.258789 0.510742
vt 0.258789 0.511719
vt 0.250977 0.511719
vt 0.250977 0.510742
vt 0.258789 0.510742
vt 0.266602 0.510742
vt 0.258789 0.510742
vt 0.258789 0.511719
vt 0.266602 0.511719
vn 0 0 -1
vn 1 0 0
vn 0 0 1
vn 0 1 0
vn 0 -1 0
usemtl Base
f 489/1101/276 490/1102/276 491/1103/276 492/1104/276
f 493/1105/277 489/1106/277 492/1107/277 494/1108/277
f 495/1109/278 493/1110/278 494/1111/278 496/1112/278
f 494/1113/279 492/1114/279 491/1115/279 496/1116/279
f 495/1117/280 490/1118/280 489/1119/280 493/1120/280
o port_side.011
v -0.75 0.25 4
v -0.25 0.25 4
v -0.25 0.75 4
v -0.75 0.75 4
vt 0.429688 0.504883
vt 0.4375 0.504883
vt 0.4375 0.512695
vt 0.429688 0.512695
vn 0 0 1
usemtl Base
f 497/1121/281 498/1122/281 499/1123/281 500/1124/281
o port_side.012
v -0.25 0.25 -3
v -0.75 0.25 -3
v -0.75 0.75 -3
v -0.25 0.75 -3
v -0.25 0.25 -2.9375
v -0.25 0.75 -2.9375
v -0.75 0.25 -2.9375
v -0.75 0.75 -2.9375
vt 0.250977 0.50293
vt 0.258789 0.50293
vt 0.258789 0.510742
vt 0.250977 0.510742
vt 0.25 0.50293
vt 0.250977 0.50293
vt 0.250977 0.510742
vt 0.25 0.510742
vt 0.258789 0.50293
vt 0.259766 0.50293
vt 0.259766 0.510742
vt 0.258789 0.510742
vt 0.258789 0.511719
vt 0.250977 0.511719
vt 0.250977 0.510742
vt 0.258789 0.510742
vt 0.266602 0.510742
vt 0.258789 0.510742
vt 0.258789 0.511719
vt 0.266602 0.511719
vn 0 0 -1
vn 1 0 0
vn -1 0 0
vn 0 1 0
vn 0 -1 0
usemtl Base
f 501/1125/282 502/1126/282 503/1127/282 504/1128/282
f 505/1129/283 501/1130/283 504/1131/283 506/1132/283
f 502/1133/284 507/1134/284 508/1135/284 503/1136/284
f 508/1137/285 506/1138/285 504/1139/285 503/1140/285
f 502/1141/286 501/1142/286 505/1143/286 507/1144/286
o port_side.013
v 1.75 0.25 -3
v 1.25 0.25 -3
v 1.25 0.75 -3
v 1.75 0.75 -3
v 1.75 0.25 -2.9375
v 1.75 0.75 -2.9375
v 1.25 0.25 -2.9375
v 1.25 0.75 -2.9375
vt 0.250977 0.50293
vt 0.258789 0.50293
vt 0.258789 0.510742
vt 0.250977 0.510742
vt 0.25 0.50293
vt 0.250977 0.50293
vt 0.250977 0.510742
vt 0.25 0.510742
vt 0.258789 0.50293
vt 0.259766 0.50293
vt 0.259766 0.510742
vt 0.258789 0.510742
vt 0.258789 0.511719
vt 0.250977 0.511719
vt 0.250977 0.510742
vt 0.258789 0.510742
vt 0.266602 0.510742
vt 0.258789 0.510742
vt 0.258789 0.511719
vt 0.266602 0.511719
vn 0 0 -1
vn 1 0 0
vn -1 0 0
vn 0 1 0
vn 0 -1 0
usemtl Base
f 509/1145/287 510/1146/287 511/1147/287 512/1148/287
f 513/1149/288 509/1150/288 512/1151/288 514/1152/288
f 510/1153/289 515/1154/289 516/1155/289 511/1156/289
f 516/1157/290 514/1158/290 512/1159/290 511/1160/290
f 510/1161/291 509/1162/291 513/1163/291 515/1164/291
o port_side.014
v 1.25 0.25 4
v 1.75 0.25 4
v 1.75 0.75 4
v 1.25 0.75 4
vt 0.429688 0.504883
vt 0.4375 0.504883
vt 0.4375 0.512695
vt 0.429688 0.512695
vn 0 0 1
usemtl Base
f 517/1165/292 518/1166/292 519/1167/292 520/1168/292
o port_side.015
v -3.00125 0.25 1.25
v -3.00125 0.25 1.75
v -3.00125 0.75 1.75
v -3.00125 0.75 1.25
vt 0.429688 0.504883
vt 0.4375 0.504883
vt 0.4375 0.512695
vt 0.429688 0.512695
vn -1 0 0
usemtl Base
f 521/1169/293 522/1170/293 523/1171/293 524/1172/293
o screen1
v 1.046111 1.1875 3.552854
v 1.73902 1.1875 3.839867
v 1.73902 1.6875 3.839866
v 1.046111 1.6875 3.552854
vt 0 0.5
vt 0.75 0.5
vt 0.75 1
vt 0 1
vn -0.3826842229937605 0.0000018477584102905152 0.9238792050199246
usemtl Screen_cmd
f 525/1173/294 526/1174/294 527/1175/294 528/1176/294
o screen1.001
v 1.844598 1.125 3.748299
v 1.036204 1.125 3.413451
v 1.036204 1.75 3.413451
v 1.844598 1.75 3.748299
v 1.796763 1.125 3.863784
v 1.796763 1.75 3.863784
v 0.988368 1.125 3.528936
v 0.988368 1.75 3.528936
vt 0.447266 0.515625
vt 0.460938 0.515625
vt 0.460938 0.525391
vt 0.447266 0.525391
vt 0.445312 0.515625
vt 0.447266 0.515625
vt 0.447266 0.525391
vt 0.445312 0.525391
vt 0.462891 0.515625
vt 0.476562 0.515625
vt 0.476562 0.525391
vt 0.462891 0.525391
vt 0.460938 0.515625
vt 0.462891 0.515625
vt 0.462891 0.525391
vt 0.460938 0.525391
vt 0.460938 0.527344
vt 0.447266 0.527344
vt 0.447266 0.525391
vt 0.460938 0.525391
vt 0.474609 0.525391
vt 0.460938 0.525391
vt 0.460938 0.527344
vt 0.474609 0.527344
vn 0.38268366790593056 0 -0.923879434947041
vn 0.9238808144936858 0 0.38268033737113305
vn -0.382683263844844 0 0.9238796023146403
vn -0.9238779860664422 0 -0.38268716579187073
vn 0 1 0
vn 0 -1 0
usemtl Base
f 529/1177/295 530/1178/295 531/1179/295 532/1180/295
f 533/1181/296 529/1182/296 532/1183/296 534/1184/296
f 535/1185/297 533/1186/297 534/1187/297 536/1188/297
f 530/1189/298 535/1190/298 536/1191/298 531/1192/298
f 536/1193/299 534/1194/299 532/1195/299 531/1196/299
f 530/1197/300 529/1198/300 533/1199/300 535/1200/300
o screen2
v 0.125 1.1875 3.53125
v 0.875 1.1875 3.53125
v 0.875 1.6875 3.53125
v 0.125 1.6875 3.53125
vt 0 0.5
vt 0.75 0.5
vt 0.75 1
vt 0 1
vn 0 0 1
usemtl Screen_logo
f 537/1201/301 538/1202/301 539/1203/301 540/1204/301
o screen2.001
v 0.9375 1.125 3.40625
v 0.0625 1.125 3.40625
v 0.0625 1.75 3.40625
v 0.9375 1.75 3.40625
v 0.9375 1.125 3.53125
v 0.9375 1.75 3.53125
v 0.0625 1.125 3.53125
v 0.0625 1.75 3.53125
vt 0.447266 0.515625
vt 0.460938 0.515625
vt 0.460938 0.525391
vt 0.447266 0.525391
vt 0.445312 0.515625
vt 0.447266 0.515625
vt 0.447266 0.525391
vt 0.445312 0.525391
vt 0.462891 0.515625
vt 0.476562 0.515625
vt 0.476562 0.525391
vt 0.462891 0.525391
vt 0.460938 0.515625
vt 0.462891 0.515625
vt 0.462891 0.525391
vt 0.460938 0.525391
vt 0.460938 0.527344
vt 0.447266 0.527344
vt 0.447266 0.525391
vt 0.460938 0.525391
vt 0.474609 0.525391
vt 0.460938 0.525391
vt 0.460938 0.527344
vt 0.474609 0.527344
vn 0 0 -1
vn 1 0 0
vn 0 0 1
vn -1 0 0
vn 0 1 0
vn 0 -1 0
usemtl Base
f 541/1205/302 542/1206/302 543/1207/302 544/1208/302
f 545/1209/303 541/1210/303 544/1211/303 546/1212/303
f 547/1213/304 545/1214/304 546/1215/304 548/1216/304
f 542/1217/305 547/1218/305 548/1219/305 543/1220/305
f 548/1221/306 546/1222/306 544/1223/306 543/1224/306
f 542/1225/307 541/1226/307 545/1227/307 547/1228/307
o screen3
v -0.73902 1.1875 3.839867
v -0.046111 1.1875 3.552854
v -0.046111 1.6875 3.552854
v -0.73902 1.6875 3.839866
vt 0 0.5
vt 0.75 0.5
vt 0.75 1
vt 0 1
vn 0.38268422299441374 0 0.9238792050215017
usemtl Screen_hello
f 549/1229/308 550/1230/308 551/1231/308 552/1232/308
o screen3.001
v -0.036204 1.125 3.413451
v -0.844598 1.125 3.748299
v -0.844598 1.75 3.748299
v -0.036204 1.75 3.413451
v 0.011632 1.125 3.528936
v 0.011632 1.75 3.528936
v -0.796763 1.125 3.863784
v -0.796763 1.75 3.863784
vt 0.447266 0.515625
vt 0.460938 0.515625
vt 0.460938 0.525391
vt 0.447266 0.525391
vt 0.445312 0.515625
vt 0.447266 0.515625
vt 0.447266 0.525391
vt 0.445312 0.525391
vt 0.462891 0.515625
vt 0.476562 0.515625
vt 0.476562 0.525391
vt 0.462891 0.525391
vt 0.460938 0.515625
vt 0.462891 0.515625
vt 0.462891 0.525391
vt 0.460938 0.525391
vt 0.460938 0.527344
vt 0.447266 0.527344
vt 0.447266 0.525391
vt 0.460938 0.525391
vt 0.474609 0.525391
vt 0.460938 0.525391
vt 0.460938 0.527344
vt 0.474609 0.527344
vn -0.38268366790593056 0 -0.923879434947041
vn 0.9238779860664419 0 -0.3826871657918716
vn 0.38268326384484397 0 0.9238796023146401
vn -0.9238808144936854 0 0.38268033737113377
vn 0 1 0
vn 0 -1 0
usemtl Base
f 553/1233/309 554/1234/309 555/1235/309 556/1236/309
f 557/1237/310 553/1238/310 556/1239/310 558/1240/310
f 559/1241/311 557/1242/311 558/1243/311 560/1244/311
f 554/1245/312 559/1246/312 560/1247/312 555/1248/312
f 560/1249/313 558/1250/313 556/1251/313 555/1252/313
f 554/1253/314 553/1254/314 557/1255/314 559/1256/314
o screen_connector
v 1.666417 1.3125 3.606845
v 1.03125 1.3125 3.34375
v 1.03125 1.5625 3.34375
v 1.666417 1.5625 3.606845
v 1.642499 1.3125 3.664587
v 1.642499 1.5625 3.664587
v 1.007332 1.3125 3.401492
v 1.007332 1.5625 3.401492
vt 0.415039 0.585938
vt 0.425781 0.585938
vt 0.425781 0.589844
vt 0.415039 0.589844
vt 0.414062 0.585938
vt 0.415039 0.585938
vt 0.415039 0.589844
vt 0.414062 0.589844
vt 0.426758 0.585938
vt 0.4375 0.585938
vt 0.4375 0.589844
vt 0.426758 0.589844
vt 0.425781 0.585938
vt 0.426758 0.585938
vt 0.426758 0.589844
vt 0.425781 0.589844
vt 0.425781 0.59082
vt 0.415039 0.59082
vt 0.415039 0.589844
vt 0.425781 0.589844
vt 0.436523 0.589844
vt 0.425781 0.589844
vt 0.425781 0.59082
vt 0.436523 0.59082
vn 0.3826836983362869 0 -0.9238794223423649
vn 0.9238768144602717 0 0.3826899942548025
vn -0.3826836983362869 0 0.9238794223423649
vn -0.9238768144602717 0 -0.3826899942548025
vn 0 1 0
vn 0 -1 0
usemtl Base
f 561/1257/315 562/1258/315 563/1259/315 564/1260/315
f 565/1261/316 561/1262/316 564/1263/316 566/1264/316
f 567/1265/317 565/1266/317 566/1267/317 568/1268/317
f 562/1269/318 567/1270/318 568/1271/318 563/1272/318
f 568/1273/319 566/1274/319 564/1275/319 563/1276/319
f 562/1277/320 561/1278/320 565/1279/320 567/1280/320
o screen_connector.001
v 0.65625 1 3.34375
v 0.34375 1 3.34375
v 0.34375 1.3125 3.34375
v 0.65625 1.3125 3.34375
v 0.65625 1 3.40625
v 0.65625 1.3125 3.40625
v 0.34375 1 3.40625
v 0.34375 1.3125 3.40625
vt 0.463867 0.666992
vt 0.46875 0.666992
vt 0.46875 0.671875
vt 0.463867 0.671875
vt 0.462891 0.666992
vt 0.463867 0.666992
vt 0.463867 0.671875
vt 0.462891 0.671875
vt 0.469727 0.666992
vt 0.474609 0.666992
vt 0.474609 0.671875
vt 0.469727 0.671875
vt 0.46875 0.666992
vt 0.469727 0.666992
vt 0.469727 0.671875
vt 0.46875 0.671875
vn 0 0 -1
vn 1 0 0
vn 0 0 1
vn -1 0 0
usemtl Base
f 569/1281/321 570/1282/321 571/1283/321 572/1284/321
f 573/1285/322 569/1286/322 572/1287/322 574/1288/322
f 575/1289/323 573/1290/323 574/1291/323 576/1292/323
f 570/1293/324 575/1294/324 576/1295/324 571/1296/324
o screen_connector.002
v -0.03125 1.3125 3.34375
v -0.72416 1.3125 3.630763
v -0.72416 1.5625 3.630763
v -0.03125 1.5625 3.34375
v -0.007332 1.3125 3.401492
v -0.007332 1.5625 3.401492
v -0.700242 1.3125 3.688505
v -0.700242 1.5625 3.688505
vt 0.438477 0.667969
vt 0.450195 0.667969
vt 0.450195 0.671875
vt 0.438477 0.671875
vt 0.4375 0.667969
vt 0.438477 0.667969
vt 0.438477 0.671875
vt 0.4375 0.671875
vt 0.451172 0.667969
vt 0.462891 0.667969
vt 0.462891 0.671875
vt 0.451172 0.671875
vt 0.450195 0.667969
vt 0.451172 0.667969
vt 0.451172 0.671875
vt 0.450195 0.671875
vt 0.450195 0.672852
vt 0.438477 0.672852
vt 0.438477 0.671875
vt 0.450195 0.671875
vt 0.461914 0.671875
vt 0.450195 0.671875
vt 0.450195 0.672852
vt 0.461914 0.672852
vn -0.38268375158934226 0 -0.9238794002842073
vn 0.9238768144602723 0 -0.38268999425480105
vn 0.38268375158934226 0 0.9238794002842073
vn -0.9238768144602724 0 0.382689994254801
vn 0 1 0
vn 0 -1 0
usemtl Base
f 577/1297/325 578/1298/325 579/1299/325 580/1300/325
f 581/1301/326 577/1302/326 580/1303/326 582/1304/326
f 583/1305/327 581/1306/327 582/1307/327 584/1308/327
f 578/1309/328 583/1310/328 584/1311/328 579/1312/328
f 584/1313/329 582/1314/329 580/1315/329 579/1316/329
f 578/1317/330 577/1318/330 581/1319/330 583/1320/330
o screen_connector.003
v 1.03125 1.3125 3.34375
v -0.03125 1.3125 3.34375
v -0.03125 1.5625 3.34375
v 1.03125 1.5625 3.34375
v 1.03125 1.3125 3.40625
v 1.03125 1.5625 3.40625
v -0.03125 1.3125 3.40625
v -0.03125 1.5625 3.40625
vt 0.395508 0.760742
vt 0.412109 0.760742
vt 0.412109 0.764648
vt 0.395508 0.764648
vt 0.394531 0.760742
vt 0.395508 0.760742
vt 0.395508 0.764648
vt 0.394531 0.764648
vt 0.413086 0.760742
vt 0.429688 0.760742
vt 0.429688 0.764648
vt 0.413086 0.764648
vt 0.412109 0.760742
vt 0.413086 0.760742
vt 0.413086 0.764648
vt 0.412109 0.764648
vt 0.412109 0.765625
vt 0.395508 0.765625
vt 0.395508 0.764648
vt 0.412109 0.764648
vt 0.428711 0.764648
vt 0.412109 0.764648
vt 0.412109 0.765625
vt 0.428711 0.765625
vn 0 0 -1
vn 1 0 0
vn 0 0 1
vn -1 0 0
vn 0 1 0
vn 0 -1 0
usemtl Base
f 585/1321/331 586/1322/331 587/1323/331 588/1324/331
f 589/1325/332 585/1326/332 588/1327/332 590/1328/332
f 591/1329/333 589/1330/333 590/1331/333 592/1332/333
f 586/1333/334 591/1334/334 592/1335/334 587/1336/334
f 592/1337/335 590/1338/335 588/1339/335 587/1340/335
f 586/1341/336 585/1342/336 589/1343/336 591/1344/336
v 2 31.962156 4.62119
v 2 31.875 3.624996
v 2 35.361683 3.319949
v 2 35.448837 4.316144
v -1 31.962156 4.62119
v -1 35.448837 4.316144
v -1 31.875 3.624996
v -1 35.361683 3.319949
vt 0.394531 0.828125
vt 0.410156 0.828125
vt 0.410156 0.882812
vt 0.394531 0.882812
vt 0.472656 0.828125
vt 0.519531 0.828125
vt 0.519531 0.882812
vt 0.472656 0.882812
vt 0.457031 0.828125
vt 0.472656 0.828125
vt 0.472656 0.882812
vt 0.457031 0.882812
vt 0.457031 0.898438
vt 0.410156 0.898438
vt 0.410156 0.882812
vt 0.457031 0.882812
vt 0.503906 0.882812
vt 0.457031 0.882812
vt 0.457031 0.898438
vt 0.503906 0.898438
vn 1 0 0
vn 0 0.08715600904331869 0.9961946747938584
vn -1 0 0
vn 0 0.9961948516959857 -0.08715398702534148
vn 0 -0.9961946704531855 0.0871560586572676
v 1.5 32.407761 5.570774
v 1.5 32.148941 4.604848
v 1.5 34.563755 3.9578
v 1.5 34.822575 4.923725
v -0.5 32.407761 5.570774
v -0.5 34.822575 4.923725
v -0.5 32.148941 4.604848
v -0.5 34.563755 3.9578
vt 0.216797 0.53125
vt 0.232422 0.53125
vt 0.232422 0.570312
vt 0.216797 0.570312
vt 0.279297 0.53125
vt 0.310547 0.53125
vt 0.310547 0.570312
vt 0.279297 0.570312
vt 0.263672 0.53125
vt 0.279297 0.53125
vt 0.279297 0.570312
vt 0.263672 0.570312
vt 0.263672 0.585938
vt 0.232422 0.585938
vt 0.232422 0.570312
vt 0.263672 0.570312
vt 0.294922 0.570312
vt 0.263672 0.570312
vt 0.263672 0.585938
vt 0.294922 0.585938
vn 1 0 0
vn 0 0.25881961940118153 0.9659256724060229
vn -1 0 0
vn 0 0.9659255322130408 -0.25882014260670266
vn 0 -0.9659255992008469 0.25881989260581356
v 2.3125 31.875 -1.375004
v -1.3125 31.875 -1.375004
v -1.3125 35.75 -1.375006
v 2.3125 35.75 -1.375006
v 2.3125 31.875 3.624996
v 2.3125 35.75 3.624994
v -1.3125 31.875 3.624996
v -1.3125 35.75 3.624994
vt 0.203125 0.759766
vt 0.259766 0.759766
vt 0.259766 0.820312
vt 0.203125 0.820312
vt 0.125 0.759766
vt 0.203125 0.759766
vt 0.203125 0.820312
vt 0.125 0.820312
vt 0.337891 0.759766
vt 0.394531 0.759766
vt 0.394531 0.820312
vt 0.337891 0.820312
vt 0.259766 0.759766
vt 0.337891 0.759766
vt 0.337891 0.820312
vt 0.259766 0.820312
vt 0.259766 0.898438
vt 0.203125 0.898438
vt 0.203125 0.820312
vt 0.259766 0.820312
vt 0.316406 0.820312
vt 0.259766 0.820312
vt 0.259766 0.898438
vt 0.316406 0.898438
vn 0 -5.161290322728375e-7 -0.9999999999998669
vn 1 0 0
vn 0 5.161290322155356e-7 0.9999999999998669
vn -1 0 0
vn 0 1 0
vn 0 -1 0
v 0.6875 31.936632 4.276392
v 0.6875 30.788582 1.504753
v 0.6875 31.712461 1.12207
v 0.6875 32.860512 3.893708
v 0.3125 30.788582 1.504753
v 0.3125 31.936632 4.276392
v 0.3125 32.860512 3.893708
v 0.3125 31.712461 1.12207
vt 0.394531 0.765625
vt 0.441406 0.765625
vt 0.441406 0.78125
vt 0.394531 0.78125
vt 0.447266 0.765625
vt 0.494141 0.765625
vt 0.494141 0.78125
vt 0.447266 0.78125
vt 0.453125 0.78125
vt 0.447266 0.78125
vt 0.447266 0.828125
vt 0.453125 0.828125
vn 1 0 0
vn -1 0 0
vn 0 -0.9238795871708868 0.38268330040511567
v 2.375 32.875 -0.937505
v 2.3125 32.875 -0.937505
v 2.3125 34.875 -0.937506
v 2.375 34.875 -0.937506
v 2.375 32.875 1.062495
v 2.375 34.875 1.062494
v 2.3125 32.875 1.062495
v 2.3125 34.875 1.062494
vt 0.342773 0.504883
vt 0.341797 0.504883
vt 0.341797 0.536133
vt 0.342773 0.536133
vt 0.374023 0.504883
vt 0.342773 0.504883
vt 0.342773 0.536133
vt 0.374023 0.536133
vt 0.375 0.504883
vt 0.374023 0.504883
vt 0.374023 0.536133
vt 0.375 0.536133
vt 0.341797 0.567383
vt 0.342773 0.567383
vt 0.342773 0.536133
vt 0.341797 0.536133
vt 0.342773 0.536133
vt 0.34375 0.536133
vt 0.34375 0.567383
vt 0.342773 0.567383
vn 0 -4.999999999588042e-7 -0.999999999999875
vn 1 0 0
vn 0 4.999999999588042e-7 0.999999999999875
vn 0 1 0
vn 0 -1 0
v -1.3125 32.875 -0.937505
v -1.375 32.875 -0.937505
v -1.375 34.875 -0.937506
v -1.3125 34.875 -0.937506
v -1.375 32.875 1.062495
v -1.3125 32.875 1.062495
v -1.3125 34.875 1.062494
v -1.375 34.875 1.062494
vt 0.341797 0.504883
vt 0.342773 0.504883
vt 0.342773 0.536133
vt 0.341797 0.536133
vt 0.374023 0.504883
vt 0.375 0.504883
vt 0.375 0.536133
vt 0.374023 0.536133
vt 0.342773 0.504883
vt 0.374023 0.504883
vt 0.374023 0.536133
vt 0.342773 0.536133
vt 0.342773 0.567383
vt 0.341797 0.567383
vt 0.341797 0.536133
vt 0.342773 0.536133
vt 0.34375 0.536133
vt 0.342773 0.536133
vt 0.342773 0.567383
vt 0.34375 0.567383
vn 0 -4.999999999588042e-7 -0.999999999999875
vn 0 4.999999999588042e-7 0.999999999999875
vn -1 0 0
vn 0 1 0
vn 0 -1 0
v 1.5 35.693062 0.066476
v 1.5 35.392357 -0.887241
v 1.5 35.75 -1.000006
v 1.5 36.050705 -0.046289
v -0.5 35.693062 0.066476
v -0.5 36.050705 -0.046289
v -0.5 35.392357 -0.887241
v -0.5 35.75 -1.000006
vt 0.375 0.545898
vt 0.390625 0.545898
vt 0.390625 0.551758
vt 0.375 0.551758
vt 0.4375 0.545898
vt 0.46875 0.545898
vt 0.46875 0.551758
vt 0.4375 0.551758
vt 0.421875 0.545898
vt 0.4375 0.545898
vt 0.4375 0.551758
vt 0.421875 0.551758
vt 0.421875 0.567383
vt 0.390625 0.567383
vt 0.390625 0.551758
vt 0.421875 0.551758
vn 1 0 0
vn 0 0.30070724330449616 0.9537164955185637
vn -1 0 0
vn 0 0.953717184489931 -0.3007050581692948
v 1.5 35.693062 1.316476
v 1.5 35.392357 0.362759
v 1.5 35.75 0.249994
v 1.5 36.050705 1.203711
v -0.5 35.693062 1.316476
v -0.5 36.050705 1.203711
v -0.5 35.392357 0.362759
v -0.5 35.75 0.249994
vt 0.375 0.545898
vt 0.390625 0.545898
vt 0.390625 0.551758
vt 0.375 0.551758
vt 0.4375 0.545898
vt 0.46875 0.545898
vt 0.46875 0.551758
vt 0.4375 0.551758
vt 0.421875 0.545898
vt 0.4375 0.545898
vt 0.4375 0.551758
vt 0.421875 0.551758
vt 0.421875 0.567383
vt 0.390625 0.567383
vt 0.390625 0.551758
vt 0.421875 0.551758
vn 1 0 0
vn 0 0.3007072433044962 0.9537164955185637
vn -1 0 0
vn 0 0.953717184489931 -0.3007050581692948
